<svg class="img-fluid" id="outputsvg" xmlns="http://www.w3.org/2000/svg" style="transform: none; transform-origin: 50% 50%; cursor: move; max-height: none;" width="1263" height="1264" viewBox="0 0 12630 12640"><g id="l13MJu64S1yy0Fliqn3nFZ4" fill="rgb(29,29,27)" style="transform: none;"><g style="transform: none;"><path id="p1BwAkSRXX" d="M6070 12623 c-1159 -49 -2253 -400 -3210 -1030 -529 -349 -972 -743 -1380 -1228 -492 -585 -886 -1281 -1133 -2001 -231 -673 -339 -1324 -339 -2044 -1 -300 10 -488 43 -760 139 -1159 601 -2258 1335 -3176 1111 -1389 2731 -2239 4504 -2364 185 -13 663 -13 845 0 1276 89 2470 547 3465 1329 223 175 344 284 571 510 288 289 470 502 683 801 1164 1633 1482 3710 859 5613 -674 2062 -2368 3640 -4471 4166 -573 144 -1199 209 -1772 184z m700 -273 c1746 -131 3342 -1011 4398 -2424 691 -926 1090 -1999 1182 -3180 13 -167 13 -682 0 -861 -129 -1758 -1001 -3351 -2415 -4412 -773 -581 -1690 -972 -2645 -1127 -373 -61 -665 -80 -1085 -73 -393 7 -664 33 -1010 98 -1841 345 -3432 1543 -4280 3224 -343 679 -536 1341 -621 2125 -21 198 -30 786 -15 1006 91 1306 594 2533 1447 3529 157 184 465 493 638 640 635 543 1314 925 2091 1178 526 171 1027 260 1650 291 110 6 516 -3 665 -14z"></path></g></g><g id="l1tPhirpy45r0S63SNsf65r" fill="rgb(255,42,12)" style="transform: none;"><g style="transform: none;"><path id="p11N24wpU9" d="M3910 6755 c7 -9 83 -215 169 -458 l157 -442 -497 -5 c-471 -5 -498 -6 -518 -24 -21 -19 -21 -25 -21 -418 0 -385 1 -399 20 -418 19 -19 33 -20 223 -20 263 0 247 -12 247 193 0 197 -11 187 200 187 151 0 160 -1 180 -22 20 -21 20 -31 20 -680 l0 -659 -25 -24 c-23 -24 -28 -25 -175 -25 -147 0 -152 1 -175 25 -25 24 -25 27 -25 193 0 233 18 216 -237 220 -190 3 -200 2 -226 -18 l-27 -21 0 -200 0 -199 -503 0 -504 0 -21 23 -22 23 0 661 c0 615 1 662 18 682 17 20 25 21 390 23 l374 3 19 24 c17 21 19 41 19 226 l0 204 -26 20 c-26 21 -35 21 -625 21 -434 0 -605 -3 -624 -12 -16 -7 -29 -24 -36 -47 -7 -24 -9 -407 -7 -1167 3 -1097 4 -1133 22 -1153 l19 -21 1422 0 c1211 0 1424 2 1441 14 18 14 19 36 24 710 l5 695 260 -735 c146 -415 264 -733 270 -730 6 2 154 106 330 231 175 125 324 229 330 231 5 2 96 -150 201 -339 132 -234 187 -343 178 -345 -8 -2 -14 -10 -14 -17 0 -11 20 -15 83 -17 l82 -3 0 -35 c0 -34 -1 -35 -42 -38 -29 -2 -43 -8 -43 -18 0 -8 7 -14 15 -14 7 0 31 -30 51 -68 20 -37 70 -126 110 -199 41 -72 74 -134 74 -137 0 -3 -7 -6 -15 -6 -23 0 -18 -25 16 -80 23 -37 37 -50 54 -50 19 0 32 -14 60 -65 20 -36 38 -65 40 -65 2 0 -2 17 -9 38 -25 72 -28 92 -11 92 20 0 19 33 -1 87 -12 32 -22 43 -38 43 -18 0 -26 17 -58 118 -20 64 -77 245 -127 402 -50 157 -91 288 -91 293 0 4 261 7 579 7 l580 0 20 26 c21 27 21 31 21 990 0 852 2 963 15 958 13 -5 15 21 15 205 0 198 -1 212 -20 231 -19 19 -33 20 -300 20 -242 0 -280 -2 -280 -15 0 -13 -48 -15 -375 -15 -258 0 -382 -4 -399 -11 -14 -7 -30 -25 -36 -42 -6 -20 -10 -255 -10 -689 0 -697 0 -705 45 -722 9 -3 104 -6 211 -6 194 0 195 0 219 25 l25 24 0 438 c0 381 2 441 16 461 15 21 21 22 178 22 153 0 164 -1 182 -21 18 -20 19 -46 19 -685 0 -623 -1 -664 -18 -681 -16 -17 -51 -18 -431 -23 l-414 -5 -302 960 c-167 528 -306 963 -309 968 -4 4 -50 -24 -103 -63 -93 -68 -116 -81 -103 -60 3 6 -1 10 -10 10 -8 0 -18 -7 -21 -15 -4 -8 -13 -15 -21 -15 -12 0 -13 -3 -4 -14 9 -11 -26 -41 -191 -161 -112 -82 -209 -148 -217 -149 -7 -1 -67 82 -132 184 -65 102 -141 219 -168 260 -111 169 -513 795 -523 814 -11 21 -11 21 11 2 21 -19 21 -19 21 7 0 34 -90 107 -133 107 -25 0 -28 -2 -17 -15z"></path><path id="pN8VPQq8r" d="M7961 5639 c-166 -174 -231 -248 -231 -265 0 -17 4 -22 15 -18 13 5 15 -102 15 -930 0 -923 0 -936 20 -956 20 -20 33 -20 668 -20 570 0 650 2 670 16 l22 15 0 1164 0 1164 -26 20 c-26 21 -37 21 -462 21 -385 0 -433 2 -422 15 11 13 9 15 -13 15 -20 0 -74 -50 -256 -241z m669 -309 c20 -20 20 -33 20 -684 l0 -665 -26 -20 c-24 -19 -40 -21 -174 -21 -131 0 -151 2 -171 19 l-24 19 -3 660 c-2 655 -2 659 19 685 l20 27 160 0 c146 0 161 -2 179 -20z"></path><path id="p1BDElrFT4" d="M9447 5830 l-27 -21 0 -1163 c0 -1114 1 -1164 18 -1179 17 -16 84 -17 759 -17 740 0 740 0 759 21 18 20 19 43 19 518 0 532 2 503 -48 573 -10 15 -8 20 10 33 12 9 27 32 33 53 14 53 14 1123 -1 1155 -19 41 -48 47 -239 47 -191 0 -220 -6 -239 -47 -7 -16 -11 -163 -11 -463 0 -427 -1 -441 -20 -460 -18 -18 -33 -20 -180 -20 -222 0 -210 15 -210 -245 0 -109 4 -204 10 -215 16 -31 67 -40 220 -40 130 0 149 -2 163 -18 14 -16 17 -45 17 -190 0 -231 26 -212 -285 -212 -240 0 -242 0 -263 23 l-22 23 0 906 c0 877 -1 907 -19 929 -19 24 -23 24 -218 27 -190 3 -200 2 -226 -18z"></path></g></g><g id="l6TvJzakWqEol9Sl4H7Ract" fill="rgb(232,178,26)" style="transform: none;"><g style="transform: none;"><path id="pQ6hatH8B" d="M4885 11908 c-192 -19 -513 -96 -701 -168 -71 -27 -81 -33 -78 -53 2 -12 53 -483 114 -1047 60 -564 112 -1043 115 -1065 5 -35 4 -38 -8 -25 -8 8 -197 342 -421 742 l-408 727 -41 -19 c-23 -9 -68 -29 -100 -43 l-57 -26 -72 104 c-40 58 -75 105 -78 105 -14 0 -196 -109 -325 -195 -224 -148 -458 -336 -668 -535 l-57 -55 149 -265 c82 -146 148 -267 146 -269 -2 -2 -137 45 -300 104 -163 59 -301 105 -308 102 -8 -3 -43 -38 -80 -79 l-67 -75 99 -254 c55 -140 96 -255 92 -257 -3 -1 -93 27 -199 62 l-193 65 -61 -77 c-34 -42 -88 -117 -121 -167 -59 -89 -147 -255 -147 -275 0 -6 169 -95 376 -197 l377 -186 -24 -18 c-13 -10 -133 -96 -266 -191 -133 -95 -242 -175 -243 -178 0 -3 172 -90 383 -193 l383 -188 299 -237 300 -236 524 -229 c500 -218 528 -231 608 -295 46 -37 118 -94 161 -127 407 -314 1219 -948 1265 -987 53 -46 57 -48 58 -26 2 39 8 86 35 279 l25 186 -185 548 c-102 302 -186 553 -186 559 0 6 110 -99 245 -234 135 -135 245 -240 245 -235 0 6 -12 120 -26 254 l-27 245 -199 333 -199 333 -39 383 -40 382 76 112 c144 213 326 429 605 718 258 269 378 428 498 664 72 142 134 318 157 451 24 142 15 355 -20 473 -28 95 -78 200 -135 287 -56 87 -207 236 -299 297 -245 163 -577 229 -957 191z m-1386 -1953 c11 -6 39 18 111 95 l96 103 240 -794 c133 -437 240 -796 238 -798 -5 -5 86 -130 -707 972 -384 532 -697 972 -697 977 0 5 159 -115 353 -268 193 -153 358 -282 366 -287z m-374 -1071 c289 -360 332 -415 309 -402 -5 3 -292 164 -639 358 -346 194 -637 359 -645 367 -13 13 -12 14 10 9 14 -3 117 -19 230 -36 l206 -31 104 60 c58 32 107 59 110 59 3 1 145 -173 315 -384z m-682 -598 l189 -42 -125 -117 c-69 -64 -129 -117 -134 -117 -10 0 -555 189 -561 194 -2 2 84 33 190 69 140 48 201 64 223 60 17 -4 115 -25 218 -47z m904 -761 l189 -149 52 -98 c29 -54 48 -98 42 -98 -19 0 -665 339 -665 350 0 5 33 48 73 95 l74 85 23 -17 c13 -10 109 -85 212 -168z"></path><path id="pCXyrnyrJ" d="M8030 11875 c0 -3 20 -31 45 -64 143 -188 275 -428 335 -611 54 -165 73 -309 67 -500 -9 -262 -71 -498 -206 -774 -73 -151 -93 -187 -276 -481 -327 -529 -747 -1285 -1118 -2015 l-171 -334 -47 -321 c-25 -176 -46 -320 -45 -321 1 -1 162 95 360 213 197 117 363 213 368 213 5 0 -88 -191 -207 -423 l-215 -424 0 -91 0 -92 265 0 c252 0 266 -1 285 -20 19 -19 20 -33 20 -211 l0 -190 111 -54 112 -54 66 68 c68 69 270 281 692 726 l247 260 247 85 247 85 578 725 578 725 549 334 c301 184 550 336 552 338 5 4 -4 31 -51 155 l-30 78 -328 2 -327 3 234 164 c129 90 237 169 239 176 10 24 -237 459 -279 493 -8 7 -150 -38 -452 -144 -242 -85 -443 -153 -446 -151 -4 1 81 193 188 427 l194 425 -29 60 c-39 80 -109 168 -128 161 -8 -3 -313 -231 -679 -506 -366 -275 -671 -503 -679 -506 -9 -3 74 302 239 878 139 486 251 884 250 886 -1 1 -100 -51 -220 -118 -120 -66 -222 -120 -227 -120 -5 0 -7 8 -4 18 9 32 69 423 65 426 -5 5 -431 194 -614 273 -82 36 -195 80 -249 99 -108 37 -106 36 -106 29z m579 -2959 c-38 -170 -69 -310 -67 -312 2 -1 273 121 602 272 329 152 600 274 602 272 2 -3 -398 -359 -889 -792 l-892 -787 -5 125 -5 126 -199 -115 c-110 -64 -203 -114 -207 -113 -4 2 247 371 558 821 311 450 567 816 569 814 2 -2 -28 -142 -67 -311z m1104 -1208 c-6 -7 -157 -195 -338 -418 l-327 -405 -57 -8 c-31 -4 -70 -6 -87 -5 l-31 3 196 340 c108 187 217 377 244 423 l48 82 180 0 c144 0 179 -3 172 -12z"></path><path id="pFq81uYrA" d="M6905 11767 l-41 -32 42 -60 c24 -33 53 -81 65 -107 l22 -47 49 25 49 25 -27 47 c-28 49 -114 182 -117 181 -1 0 -20 -14 -42 -32z"></path><path id="p1BN1FIhEf" d="M3863 11276 c-56 -11 -104 -24 -108 -27 -3 -4 19 -78 50 -165 56 -158 256 -667 260 -662 1 2 -8 84 -21 183 -20 162 -42 381 -60 613 -4 45 -9 82 -13 81 -3 -1 -52 -11 -108 -23z"></path><path id="psewhDy2K" d="M7181 11033 l-34 -4 7 -61 c3 -34 6 -92 6 -129 l0 -69 56 0 57 0 -7 113 c-9 136 -13 157 -35 155 -9 0 -31 -3 -50 -5z"></path><path id="pBd3clQmY" d="M9593 10633 c-84 -196 -146 -350 -139 -342 45 48 476 581 476 589 0 7 -169 110 -182 110 -2 0 -72 -160 -155 -357z"></path><path id="p1963AywMa" d="M7073 10147 c-18 -56 -35 -110 -38 -120 -7 -17 11 -28 70 -43 23 -6 25 0 59 107 20 62 36 118 36 125 0 11 -56 34 -85 34 -6 0 -25 -46 -42 -103z"></path><path id="pQYnl2ujj" d="M10524 9927 c-51 -73 -90 -133 -89 -135 1 -2 62 36 135 84 l132 86 -43 46 c-24 26 -44 48 -44 49 0 1 -41 -58 -91 -130z"></path><path id="p17DTpO1pU" d="M6742 9413 c-34 -58 -61 -107 -60 -108 2 -1 21 -14 43 -28 l39 -27 36 58 c20 31 51 83 69 114 l32 57 -40 21 c-22 11 -44 20 -48 20 -4 0 -36 -48 -71 -107z"></path><path id="p14snebThW" d="M6296 8770 c-42 -55 -76 -103 -76 -107 0 -5 18 -20 39 -35 l38 -27 77 99 c42 54 76 101 76 103 0 3 -17 19 -39 36 l-38 30 -77 -99z"></path><path id="pNY8kIxwR" d="M770 8118 c-12 -40 -23 -77 -24 -82 -3 -17 841 -202 1104 -241 19 -3 -50 24 -155 59 -217 73 -673 243 -892 333 -7 3 -20 -22 -33 -69z"></path><path id="p1G2aRx3J" d="M5897 8063 c-20 -65 -37 -121 -37 -125 0 -10 80 -30 96 -24 8 3 14 12 14 21 0 8 14 57 30 108 17 52 30 97 30 101 0 7 -35 22 -74 32 -21 5 -25 -2 -59 -113z"></path><path id="p17CQxJGEl" d="M5783 7259 c4 -73 9 -134 11 -137 3 -2 26 -1 51 2 l45 7 0 123 c0 138 1 136 -79 136 l-34 0 6 -131z"></path><path id="p9S6KsW09" d="M5928 6594 c-28 -9 -46 -19 -43 -27 38 -123 69 -208 77 -213 5 -3 29 1 52 10 l42 16 -37 111 c-20 61 -39 112 -41 114 -1 1 -24 -4 -50 -11z"></path><path id="p1Dg7yAccr" d="M4605 3181 c-60 -11 -112 -39 -146 -80 -52 -63 -59 -109 -59 -368 l0 -233 65 0 65 0 0 213 c0 116 5 229 10 249 6 20 25 49 42 63 28 24 39 27 85 23 108 -9 123 -53 123 -348 l0 -200 65 0 65 0 0 228 c0 263 -8 308 -68 374 -59 65 -153 95 -247 79z"></path><path id="pHxUmgT3f" d="M3828 3168 c-15 -13 -228 -619 -228 -651 0 -16 8 -18 67 -15 l67 3 75 228 c40 125 76 225 79 222 3 -3 38 -105 77 -228 l72 -222 66 -3 c59 -3 67 -1 67 15 0 22 -209 633 -223 651 -5 6 -31 12 -56 12 -26 0 -54 -6 -63 -12z"></path><path id="p18Niqtpma" d="M5193 3173 c-10 -4 -13 -81 -13 -339 l0 -334 225 0 226 0 -3 63 -3 62 -152 3 -153 3 0 59 0 59 88 3 87 3 0 60 0 60 -87 3 -88 3 0 79 0 80 153 0 c106 0 157 4 165 12 7 7 12 33 12 58 0 25 -5 51 -12 58 -9 9 -71 12 -222 11 -116 0 -217 -3 -223 -6z"></path><path id="pfmGCY10a" d="M5893 3173 c-10 -3 -13 -81 -13 -339 l0 -335 68 3 67 3 3 267 2 267 158 3 157 3 0 65 0 65 -215 2 c-118 1 -221 -1 -227 -4z"></path><path id="pxu4mMLzI" d="M6602 3168 c-9 -9 -12 -84 -12 -274 0 -251 -1 -263 -19 -266 -19 -3 -19 -4 1 -66 l21 -62 161 2 161 3 3 39 c2 22 1 50 -2 63 -6 22 -10 23 -96 23 l-90 0 0 269 c0 236 -2 270 -16 275 -27 10 -99 7 -112 -6z"></path><path id="pI1g1ehRh" d="M7033 3173 c-7 -2 -13 -10 -13 -16 0 -18 221 -630 233 -645 7 -9 30 -12 71 -10 l61 3 120 328 c132 363 130 347 44 347 -55 0 -64 -8 -94 -93 l-23 -62 -115 -3 -115 -3 -22 68 c-12 37 -29 74 -38 81 -15 12 -85 15 -109 5z m326 -360 c-16 -49 -32 -95 -35 -103 -6 -14 -72 147 -73 178 -1 8 19 12 68 12 l70 0 -30 -87z"></path><path id="p1BGYYtBGk" d="M8201 3171 c-16 -10 -23 13 116 -376 53 -148 101 -276 106 -282 6 -8 33 -13 68 -13 46 0 60 4 68 18 15 28 231 625 231 638 0 16 -24 24 -75 24 -51 0 -57 -7 -87 -91 l-23 -64 -116 -3 -115 -3 -18 58 c-28 92 -39 103 -94 103 -26 0 -53 -4 -61 -9z m359 -275 c0 -3 -12 -38 -26 -78 -50 -137 -43 -133 -75 -40 -15 46 -31 92 -34 103 -6 18 -1 19 64 19 39 0 71 -2 71 -4z"></path><path id="pOHMNXkhu" d="M9027 3173 c-4 -3 -7 -156 -7 -340 l0 -333 65 0 65 0 0 270 0 269 158 3 157 3 3 59 c2 41 -1 62 -10 67 -15 10 -422 12 -431 2z"></path><path id="p1FpKesQX3" d="M1656 2838 c116 -164 342 -414 553 -612 510 -480 1141 -892 1836 -1201 538 -239 1137 -399 1720 -460 181 -19 879 -23 1050 -6 839 84 1619 339 2408 787 680 387 1327 931 1716 1444 70 92 76 101 59 96 -319 -101 -499 -189 -675 -330 -45 -36 -262 -251 -484 -476 -221 -225 -404 -408 -406 -406 -2 2 23 46 55 97 87 139 164 282 212 392 45 102 139 273 238 430 32 50 62 99 67 106 19 33 -201 -106 -340 -214 -137 -107 -276 -261 -753 -838 -117 -141 -215 -257 -218 -257 -2 0 25 55 60 122 35 68 84 175 109 238 24 63 61 158 81 211 41 109 102 212 183 312 l55 68 -43 -22 c-75 -38 -186 -117 -254 -181 -36 -33 -153 -169 -259 -302 -202 -252 -585 -716 -591 -716 -2 0 18 48 44 107 54 121 76 182 67 190 -13 14 -350 -276 -443 -381 -22 -25 -43 -46 -46 -46 -2 0 6 46 19 102 14 55 23 102 22 103 -2 2 -120 -87 -263 -196 -142 -109 -261 -197 -262 -195 -2 2 17 54 42 116 26 61 44 114 41 117 -2 2 -33 -18 -68 -45 -190 -147 -366 -242 -516 -276 -77 -17 -317 -23 -326 -7 -4 5 16 26 44 46 67 49 157 149 229 254 97 142 214 246 342 306 56 25 56 25 -43 46 -62 13 -62 14 -49 72 9 35 8 37 -7 24 -43 -38 -219 -102 -261 -95 -19 3 -12 19 70 167 49 90 88 165 86 168 -2 2 -66 -70 -142 -159 -95 -113 -145 -164 -161 -166 -13 -2 -24 2 -24 8 0 6 16 50 36 98 46 111 54 132 51 132 -2 0 -41 -54 -87 -120 -46 -66 -91 -122 -100 -125 -9 -3 -57 -39 -106 -80 -138 -116 -273 -178 -419 -192 l-65 -6 0 34 c0 67 -57 126 -145 150 -52 14 -186 82 -257 131 -32 21 -58 36 -58 33 0 -4 59 -90 132 -193 101 -145 160 -216 260 -317 70 -72 128 -136 128 -143 0 -26 -224 105 -358 210 -35 27 -66 48 -68 45 -2 -2 16 -54 41 -116 25 -61 45 -114 45 -118 0 -3 -44 37 -98 89 -85 82 -309 245 -409 297 -28 14 -28 18 1 -99 13 -52 22 -96 21 -98 -2 -2 -27 23 -56 54 -117 124 -422 384 -435 371 -8 -8 13 -68 63 -181 24 -54 42 -100 40 -102 -5 -5 -427 506 -639 771 -181 228 -270 310 -451 411 l-59 34 49 -57 c108 -126 168 -233 233 -417 52 -148 107 -273 171 -393 27 -51 48 -93 45 -93 -2 0 -111 129 -242 287 -475 572 -587 696 -729 807 -94 74 -206 149 -290 197 l-60 34 20 -30 c94 -144 224 -374 305 -540 53 -110 133 -260 178 -332 44 -73 77 -133 74 -133 -4 0 -188 184 -410 409 -221 225 -436 437 -478 470 -144 117 -344 220 -568 295 -60 20 -111 36 -113 36 -3 0 12 -24 33 -52z"></path><path id="pv4PjZCuE" d="M6417 2624 c-4 -4 -7 -34 -7 -66 l0 -58 65 0 c36 0 65 3 65 8 0 4 -15 32 -33 62 -24 40 -40 56 -58 58 -14 2 -28 0 -32 -4z"></path></g></g></svg>