<svg xmlns="http://www.w3.org/2000/svg" viewBox="-625 0 1800 1000"><path d="M251.03,60.00 L252.03,60.13 L252.09,60.11 L252.29,60.43 L252.31,60.56 L252.29,61.86 L252.12,63.16 L252.02,63.89 L251.99,64.07 L251.98,64.19 L251.95,64.42 L251.94,64.44 L251.83,65.25 L251.76,65.70 L251.58,67.06 L251.41,68.34 L251.40,68.41 L251.31,69.20 L251.29,69.33 L251.23,69.86 L251.11,70.76 L251.03,71.35 L250.90,72.23 L250.79,73.02 L250.56,74.18 L250.43,74.84 L250.41,74.99 L249.73,79.29 L249.68,79.63 L249.58,80.30 L249.43,81.26 L249.39,81.57 L249.31,82.13 L249.19,82.88 L249.14,83.22 L249.00,84.19 L248.96,84.48 L248.95,84.55 L248.89,84.93 L248.79,85.67 L248.71,86.17 L248.64,86.62 L248.39,88.37 L248.37,88.53 L248.32,88.82 L248.21,89.54 L248.11,90.29 L248.02,90.90 L248.00,91.02 L247.92,91.56 L247.80,92.38 L247.68,93.16 L247.53,93.79 L247.41,94.24 L247.39,94.34 L247.23,95.01 L247.22,95.25 L247.21,95.30 L247.20,96.11 L247.18,96.41 L247.12,97.22 L246.97,98.18 L246.95,98.34 L246.78,99.47 L246.72,99.81 L246.61,100.62 L246.44,101.81 L246.39,102.21 L246.36,102.38 L246.16,103.61 L246.13,103.86 L245.91,105.26 L245.67,106.80 L245.62,107.10 L245.54,107.63 L245.53,107.70 L245.32,109.01 L245.04,110.86 L244.98,111.22 L244.69,113.10 L244.65,113.39 L244.32,115.82 L244.27,116.16 L244.26,116.23 L244.00,117.88 L243.96,118.20 L243.59,120.73 L243.58,120.82 L243.50,121.34 L243.48,121.51 L243.43,121.83 L243.28,122.93 L243.17,123.66 L243.05,124.48 L242.95,125.28 L242.74,126.76 L242.70,127.05 L242.55,128.07 L242.36,129.42 L242.34,129.58 L241.96,132.39 L241.92,132.63 L241.81,133.41 L241.74,133.85 L241.57,135.02 L241.53,135.32 L241.38,136.38 L241.18,137.74 L241.08,138.40 L240.82,140.03 L240.77,140.43 L240.64,141.29 L240.49,142.20 L240.42,142.73 L240.35,143.21 L240.33,143.37 L240.26,143.83 L240.20,144.25 L240.16,144.56 L240.02,145.81 L239.72,148.10 L239.40,150.33 L239.26,151.49 L238.89,154.43 L238.85,154.71 L238.74,154.90 L238.61,155.76 L238.32,157.60 L238.30,157.68 L238.28,157.86 L238.26,157.94 L238.18,158.45 L238.14,158.72 L237.99,159.69 L237.67,161.56 L237.40,163.32 L237.35,163.60 L237.18,164.59 L237.00,165.68 L237.02,166.07 L237.01,166.12 L236.95,166.50 L236.75,167.61 L236.57,168.80 L236.56,168.91 L236.54,169.04 L236.50,169.28 L236.50,169.32 L236.04,171.42 L236.00,171.58 L235.96,171.79 L235.69,172.94 L235.48,173.86 L235.46,173.94 L235.34,174.52 L235.31,174.69 L235.10,175.64 L234.99,176.07 L234.37,178.25 L234.01,179.65 L233.91,179.99 L233.88,180.11 L233.86,180.18 L233.63,181.07 L233.53,181.42 L233.33,182.15 L233.19,182.81 L233.15,183.04 L233.02,184.10 L232.99,185.54 L233.00,185.63 L233.00,185.67 L233.15,186.75 L233.24,187.25 L233.37,187.80 L233.70,189.19 L234.07,190.69 L234.11,190.89 L234.18,191.18 L234.31,191.70 L234.50,192.59 L234.70,193.49 L234.76,193.80 L234.81,194.01 L234.98,194.80 L235.22,195.91 L235.48,196.91 L235.67,197.73 L235.75,198.10 L235.76,198.12 L235.92,198.70 L235.97,198.86 L236.05,199.20 L236.18,199.73 L236.27,200.08 L236.56,201.06 L236.71,201.58 L236.83,202.02 L237.11,202.99 L237.01,203.18 L237.08,203.42 L237.27,203.52 L237.52,204.36 L237.73,205.06 L238.17,206.60 L238.31,207.06 L238.50,207.72 L238.61,208.13 L239.09,209.70 L239.28,210.39 L239.71,211.94 L239.91,212.60 L240.08,213.10 L240.37,214.07 L240.95,216.03 L241.04,216.36 L241.75,218.71 L241.98,219.49 L242.75,222.14 L243.73,225.52 L243.90,226.08 L243.97,226.28 L244.02,226.48 L244.19,227.18 L244.28,227.81 L244.31,228.15 L244.32,228.45 L244.29,228.96 L244.20,229.62 L243.89,230.70 L243.74,231.24 L243.51,231.60 L243.35,232.01 L243.18,232.52 L242.73,234.08 L242.62,234.62 L242.65,234.99 L242.71,235.20 L242.88,235.48 L243.03,235.66 L243.23,235.81 L243.47,235.92 L244.28,236.20 L244.51,236.36 L244.70,236.59 L244.96,236.92 L245.66,238.28 L245.76,238.55 L246.40,240.11 L246.62,240.55 L246.24,241.70 L246.19,241.94 L246.24,242.30 L246.46,242.72 L246.76,242.92 L247.01,243.02 L248.70,243.60 L249.02,243.74 L249.30,243.94 L249.62,244.35 L249.83,244.89 L249.88,245.31 L249.86,245.75 L249.87,246.52 L250.02,247.12 L250.60,248.16 L250.77,248.48 L250.85,248.63 L251.08,249.00 L251.90,250.17 L252.00,250.40 L252.08,250.66 L252.11,250.92 L252.48,253.58 L252.50,253.66 L252.52,253.82 L252.77,255.27 L252.79,255.39 L253.04,256.78 L253.05,256.84 L253.35,258.70 L253.69,260.69 L253.70,260.90 L253.72,261.56 L253.75,262.86 L253.76,263.06 L253.78,264.13 L253.77,264.45 L253.71,266.43 L253.69,266.90 L253.61,267.61 L253.52,268.21 L253.44,268.85 L253.37,269.15 L253.28,269.65 L253.26,269.75 L253.20,270.16 L253.17,270.33 L252.88,271.82 L252.82,272.20 L252.80,272.33 L252.65,273.19 L252.66,273.73 L252.79,274.08 L253.35,274.73 L253.99,275.39 L254.50,275.95 L254.76,276.24 L255.29,276.82 L255.45,276.99 L255.59,277.15 L255.91,277.51 L256.66,278.39 L256.74,278.48 L257.18,278.99 L257.68,279.56 L257.80,279.70 L257.99,279.91 L259.65,281.74 L259.78,281.88 L259.81,282.00 L259.77,282.10 L259.71,282.22 L259.75,282.28 L259.73,282.43 L259.42,283.24 L259.40,283.31 L259.10,284.27 L259.02,284.76 L259.03,284.98 L259.07,285.22 L259.16,285.44 L259.31,285.70 L259.63,286.07 L259.99,286.31 L260.80,286.69 L261.35,286.91 L261.85,287.17 L262.14,287.39 L262.49,287.80 L262.63,288.01 L262.74,288.16 L262.94,288.54 L263.83,290.20 L263.97,290.48 L265.34,293.03 L265.44,293.22 L265.65,293.60 L265.70,293.70 L266.00,294.25 L266.33,294.83 L267.35,296.69 L267.41,296.80 L267.75,297.42 L267.94,297.77 L268.04,297.95 L268.17,298.20 L269.46,300.54 L269.91,301.37 L269.98,301.48 L270.12,301.74 L270.21,301.90 L270.44,302.32 L270.48,302.40 L271.00,303.40 L271.18,303.73 L271.62,304.53 L272.13,305.46 L272.57,306.25 L272.95,306.95 L274.11,309.05 L274.52,309.78 L274.64,309.99 L274.93,310.53 L275.11,310.85 L275.33,311.25 L275.49,311.55 L275.84,312.17 L276.27,312.95 L276.41,313.22 L276.60,313.52 L276.70,313.68 L277.50,315.21 L277.91,316.00 L277.99,316.16 L278.19,316.55 L280.28,320.35 L280.52,320.79 L280.93,321.53 L281.79,323.07 L282.38,324.16 L282.48,324.35 L283.65,326.50 L284.03,327.08 L284.20,327.25 L284.69,327.59 L285.17,327.83 L286.38,328.24 L286.22,328.74 L286.38,328.24 L287.55,328.63 L287.92,328.75 L288.45,328.93 L291.37,329.90 L291.16,331.28 L291.04,331.91 L291.02,332.01 L290.95,332.35 L290.82,333.01 L290.38,335.03 L290.22,335.90 L289.95,337.24 L289.96,337.53 L290.12,337.87 L290.18,337.98 L290.40,338.43 L291.14,339.86 L291.23,340.00 L291.41,340.25 L291.63,340.45 L291.91,340.71 L292.20,340.98 L292.96,341.77 L293.10,341.92 L293.38,342.18 L293.66,342.47 L293.74,342.57 L293.81,342.64 L294.00,342.82 L294.41,343.24 L294.70,343.49 L295.39,344.11 L295.66,344.03 L295.77,343.99 L295.88,343.88 L296.03,343.66 L296.51,342.83 L296.82,342.49 L297.01,342.35 L297.50,342.03 L298.07,341.74 L300.45,340.66 L300.99,340.50 L301.44,340.46 L303.07,340.50 L303.63,340.57 L303.83,340.60 L304.49,340.83 L305.31,341.29 L305.82,341.74 L306.81,342.50 L307.04,342.76 L307.21,343.07 L307.36,343.37 L307.56,343.67 L307.91,344.02 L308.37,344.28 L308.57,344.28 L308.69,344.34 L309.72,344.36 L309.72,344.54 L309.72,344.36 L311.01,344.35 L311.71,344.28 L311.71,344.17 L311.96,344.08 L313.18,343.36 L313.34,343.28 L313.54,343.26 L313.58,343.24 L313.95,342.98 L313.58,343.24 L313.54,343.26 L313.34,343.28 L314.11,342.74 L314.76,342.33 L315.41,342.17 L315.76,342.17 L316.17,342.24 L316.49,342.37 L316.82,342.58 L317.32,343.03 L317.44,343.14 L317.57,343.30 L317.86,343.80 L317.96,344.10 L318.04,345.03 L318.13,345.41 L318.72,346.57 L319.17,347.46 L319.28,347.66 L319.64,348.33 L319.75,348.53 L319.95,348.87 L320.19,349.19 L320.63,349.54 L320.99,349.71 L321.38,349.79 L321.66,349.79 L321.93,349.75 L322.25,349.67 L323.58,349.34 L323.94,349.17 L324.21,349.00 L324.52,348.72 L324.97,348.03 L325.49,347.14 L326.06,346.55 L326.38,346.19 L326.76,345.78 L327.16,345.49 L327.66,345.23 L328.71,344.92 L329.05,344.87 L329.32,344.83 L330.18,344.71 L330.45,344.66 L333.06,344.19 L334.54,343.99 L334.82,343.94 L335.06,343.85 L335.22,343.74 L335.79,343.36 L336.37,342.94 L336.64,342.74 L337.00,342.49 L337.78,341.91 L338.56,341.28 L338.88,340.97 L338.97,340.89 L339.28,340.59 L340.03,339.48 L340.07,339.43 L340.52,338.85 L340.57,338.76 L341.15,337.91 L341.28,337.72 L341.87,336.84 L342.35,335.87 L342.64,335.32 L343.15,334.31 L343.52,333.73 L344.17,333.11 L344.26,333.03 L345.41,332.16 L345.86,331.89 L347.89,330.77 L348.16,330.60 L348.27,330.54 L348.45,330.51 L349.17,330.44 L349.70,330.50 L349.97,330.63 L350.56,331.02 L351.30,331.49 L351.46,331.54 L352.92,332.39 L353.26,332.57 L353.64,332.76 L354.24,333.26 L355.28,334.20 L355.37,334.28 L355.79,334.57 L356.28,334.95 L356.37,335.02 L356.81,335.41 L356.95,335.55 L357.38,335.94 L357.65,336.19 L357.98,336.68 L358.70,337.90 L358.80,338.04 L359.04,338.36 L359.52,338.92 L359.78,339.28 L359.92,339.46 L360.14,339.59 L360.84,339.47 L361.33,339.36 L361.31,339.46 L361.37,339.54 L361.40,339.55 L361.32,340.11 L361.27,340.52 L361.32,341.04 L361.45,341.53 L361.63,342.47 L361.67,342.67 L361.66,343.18 L361.73,343.80 L361.80,344.07 L361.90,344.23 L362.13,344.43 L362.26,344.50 L362.45,344.57 L362.77,344.61 L363.27,344.72 L363.75,345.01 L364.18,345.54 L364.56,346.20 L364.76,346.57 L364.94,346.88 L365.60,348.19 L365.65,348.46 L365.69,348.83 L365.64,349.21 L365.59,349.41 L365.09,350.58 L365.05,350.68 L364.90,350.99 L364.51,351.90 L364.01,353.05 L363.87,353.36 L363.76,353.80 L363.70,354.22 L363.79,354.79 L364.76,357.49 L365.04,358.34 L365.11,358.56 L365.15,358.74 L365.15,359.08 L365.11,359.34 L364.95,359.77 L364.60,360.59 L364.33,361.27 L364.27,361.55 L364.19,361.96 L364.18,362.51 L364.19,362.74 L364.18,363.69 L364.07,364.41 L363.71,365.46 L363.61,365.75 L363.27,366.78 L363.26,367.17 L363.32,367.67 L363.40,367.97 L363.72,368.89 L363.85,369.50 L363.84,370.05 L363.62,371.44 L363.64,371.88 L363.72,372.24 L363.81,372.47 L364.31,373.52 L364.48,374.04 L364.52,374.33 L364.53,374.85 L364.44,376.55 L364.45,377.44 L364.46,377.60 L364.57,378.28 L364.71,378.86 L364.89,379.43 L365.37,380.69 L366.47,383.38 L366.77,383.98 L367.13,384.58 L367.24,384.73 L367.87,385.55 L369.52,387.61 L370.40,388.74 L371.05,389.55 L371.59,390.40 L371.96,391.13 L371.98,391.20 L372.24,391.87 L372.26,392.05 L372.43,392.61 L372.84,393.91 L372.97,394.30 L373.06,394.61 L373.46,395.94 L373.63,396.22 L374.16,397.96 L374.61,399.34 L374.76,399.71 L375.04,400.39 L375.31,400.93 L376.73,403.75 L377.29,404.78 L377.65,405.26 L378.54,406.22 L378.66,406.34 L379.12,406.76 L379.40,406.92 L379.56,407.01 L380.33,407.27 L380.57,407.34 L382.27,407.81 L382.40,407.85 L383.80,408.27 L384.46,408.57 L384.89,408.91 L385.34,409.46 L385.51,409.77 L385.66,410.13 L385.83,410.89 L385.84,411.39 L385.67,412.98 L385.69,413.36 L385.76,413.71 L385.99,414.24 L387.71,416.77 L388.14,417.43 L388.27,417.72 L388.34,417.98 L388.38,418.32 L388.37,418.61 L388.27,419.02 L388.14,419.33 L387.94,419.59 L387.66,419.89 L386.17,421.18 L386.00,421.38 L385.78,421.76 L385.66,422.14 L385.62,422.36 L385.64,422.87 L385.70,423.18 L386.11,423.99 L386.62,424.91 L387.27,426.12 L387.59,426.56 L387.83,426.81 L388.10,427.01 L388.92,427.50 L390.60,428.48 L391.16,429.03 L391.36,429.31 L392.35,431.23 L392.67,431.87 L392.74,432.03 L392.85,432.23 L393.07,432.87 L393.13,433.40 L392.96,434.98 L392.97,435.68 L393.16,436.32 L393.46,436.83 L393.59,436.99 L394.52,438.05 L395.38,439.01 L395.72,439.39 L396.37,439.87 L397.41,440.38 L398.05,440.68 L398.39,440.90 L398.65,441.15 L399.05,441.62 L399.80,442.73 L400.00,443.03 L400.23,443.35 L400.38,443.62 L401.67,445.53 L401.93,445.85 L402.23,446.13 L402.53,446.36 L403.17,446.63 L403.56,446.69 L404.01,446.71 L405.34,446.50 L405.67,446.46 L406.60,446.47 L410.69,446.66 L411.16,446.78 L411.47,446.93 L411.80,447.13 L413.05,447.91 L413.40,448.07 L413.60,448.12 L414.17,448.21 L414.52,448.20 L415.52,448.00 L416.06,447.88 L416.90,447.72 L417.89,447.55 L418.43,447.58 L418.90,447.69 L419.70,448.01 L421.20,448.65 L421.64,448.82 L422.14,448.95 L422.89,449.04 L425.24,449.16 L426.14,449.20 L426.68,449.30 L427.13,449.48 L427.67,449.82 L428.44,450.53 L429.05,451.11 L430.76,452.60 L431.50,453.18 L431.88,453.34 L432.63,453.46 L433.71,453.58 L434.47,453.74 L435.10,454.01 L435.41,454.26 L435.81,454.72 L436.66,455.77 L436.96,456.18 L437.49,456.60 L437.80,456.75 L438.26,456.93 L438.63,457.05 L439.11,457.19 L439.36,457.26 L439.99,457.48 L440.26,457.62 L440.58,457.85 L440.85,458.10 L441.07,458.41 L441.54,459.31 L441.73,459.68 L442.03,460.21 L442.11,460.33 L442.44,460.66 L442.84,460.98 L445.13,462.54 L445.23,462.61 L446.68,463.63 L447.26,463.95 L448.39,464.36 L450.61,465.08 L451.21,465.38 L451.58,465.71 L451.76,465.95 L451.95,466.32 L452.17,466.81 L452.31,467.10 L452.70,467.66 L453.15,468.08 L453.94,468.48 L454.69,468.90 L455.08,469.26 L455.25,469.52 L455.68,470.45 L456.27,472.14 L456.59,472.72 L457.39,473.65 L457.70,473.93 L458.18,474.21 L460.47,474.72 L461.09,474.93 L461.40,475.09 L461.92,475.49 L462.39,476.04 L463.35,477.59 L466.88,483.05 L467.83,484.59 L470.27,488.54 L470.97,489.20 L471.95,489.82 L473.87,490.73 L475.97,491.89 L476.89,492.54 L477.45,493.08 L482.22,498.27 L484.13,500.23 L485.20,501.08 L487.63,502.66 L494.73,507.29 L496.67,508.56 L497.56,508.87 L497.89,508.92 L498.51,508.96 L499.07,508.92 L505.11,508.22 L506.14,508.18 L506.61,508.22 L507.03,508.27 L508.14,508.51 L513.41,510.40 L514.64,510.76 L515.55,510.97 L516.59,511.13 L517.72,511.26 L524.77,511.86 L525.98,511.99 L526.55,512.15 L526.99,512.34 L527.41,512.59 L527.79,512.87 L528.24,513.29 L530.20,515.37 L530.51,515.64 L530.99,515.93 L531.39,516.04 L531.97,516.05 L535.74,515.35 L536.21,515.31 L536.62,515.41 L537.02,515.63 L537.29,515.93 L537.47,516.30 L537.53,516.75 L537.50,517.02 L537.38,517.37 L537.09,517.80 L535.58,519.78 L535.25,520.30 L534.91,520.91 L534.61,521.56 L534.29,522.45 L533.99,523.63 L533.82,524.18 L533.68,525.05 L533.67,525.64 L533.70,525.91 L534.01,527.69 L534.27,529.44 L534.29,529.97 L534.26,530.86 L534.16,531.92 L534.07,532.50 L534.01,532.95 L533.97,533.61 L534.03,534.31 L534.36,535.59 L535.06,537.81 L535.31,538.73 L535.44,539.40 L535.49,539.90 L535.52,541.42 L535.42,547.11 L535.54,548.49 L535.67,549.17 L535.97,550.16 L540.46,563.47 L544.33,574.89 L544.68,575.73 L544.81,576.03 L545.28,576.74 L545.46,576.99 L546.08,577.68 L551.15,582.77 L551.50,583.14 L551.80,583.60 L551.95,583.99 L552.04,584.59 L552.02,585.17 L551.91,585.65 L550.10,591.22 L549.74,592.23 L549.36,592.69 L547.56,594.03 L547.12,594.48 L546.82,594.93 L546.64,595.35 L546.57,595.62 L546.54,596.23 L546.56,596.51 L547.56,604.79 L547.63,605.48 L547.62,605.94 L547.57,606.28 L547.45,606.66 L545.97,609.76 L545.86,610.49 L545.89,610.84 L546.08,611.60 L546.88,613.22 L547.17,613.91 L547.26,614.26 L547.35,614.75 L547.65,618.73 L547.94,623.20 L547.90,624.16 L547.82,624.62 L547.61,625.29 L547.49,625.59 L547.00,626.47 L543.32,630.88 L542.61,631.80 L542.25,632.53 L542.07,633.45 L542.04,633.97 L542.09,634.54 L542.28,636.00 L542.31,636.86 L542.21,637.55 L542.10,637.83 L541.91,638.15 L541.67,638.42 L540.94,638.98 L537.37,641.18 L534.62,642.88 L534.20,643.21 L533.82,643.66 L533.68,643.91 L533.53,644.25 L533.39,644.78 L533.39,645.30 L533.46,645.79 L533.71,646.40 L534.05,646.99 L535.51,649.36 L537.07,651.85 L537.27,652.23 L537.40,652.66 L537.45,653.22 L537.39,653.75 L537.31,654.07 L537.18,654.40 L537.00,654.69 L536.59,655.15 L536.35,655.35 L534.27,656.72 L533.94,657.00 L533.61,657.36 L533.12,658.07 L532.24,660.25 L531.81,661.20 L531.37,661.81 L529.51,663.82 L528.90,664.46 L527.82,665.59 L527.27,666.18 L527.15,666.31 L525.97,667.48 L525.47,667.86 L524.90,668.23 L522.90,669.51 L521.19,670.51 L520.77,670.68 L520.22,670.84 L519.53,670.95 L519.01,670.90 L518.28,670.74 L515.92,669.88 L515.29,669.75 L513.92,669.74 L513.09,669.66 L511.72,669.31 L510.09,668.89 L508.96,668.90 L507.14,669.16 L505.50,669.47 L504.89,669.98 L504.64,670.78 L504.67,671.30 L506.04,673.96 L506.65,674.52 L507.49,674.98 L508.41,675.57 L508.73,675.98 L509.63,677.58 L511.21,678.87 L511.51,679.17 L511.83,679.68 L512.62,681.15 L513.09,681.80 L515.74,684.82 L516.55,685.66 L516.95,686.02 L517.53,686.39 L518.16,686.65 L518.73,686.77 L520.76,687.02 L521.20,687.18 L521.68,687.48 L521.93,687.69 L525.23,691.21 L525.56,691.50 L525.94,691.74 L526.18,691.86 L526.62,691.99 L527.17,692.03 L527.75,691.96 L529.74,691.54 L530.93,691.01 L532.13,690.55 L532.66,690.49 L533.20,690.51 L533.61,690.62 L533.97,690.86 L534.25,691.20 L534.43,691.65 L534.46,692.12 L534.24,692.70 L533.75,693.17 L533.40,693.30 L532.99,693.39 L532.51,693.41 L532.09,693.55 L531.80,693.73 L531.57,694.00 L531.41,694.25 L531.28,694.58 L530.68,696.53 L530.38,697.51 L530.20,697.82 L529.93,698.10 L529.51,698.30 L528.05,698.58 L527.28,698.73 L526.89,698.86 L526.50,699.09 L526.00,699.41 L525.09,700.33 L524.57,700.81 L523.94,701.19 L523.24,701.37 L519.36,701.69 L517.86,701.92 L512.12,703.57 L511.68,703.81 L510.70,704.54 L510.17,704.98 L510.04,705.15 L509.65,705.98 L509.17,706.86 L508.94,707.09 L508.64,707.26 L508.27,707.34 L507.87,707.35 L506.04,707.07 L505.41,707.10 L503.40,707.43 L502.89,707.47 L502.77,707.45 L501.28,707.18 L500.60,707.15 L499.90,707.22 L499.56,707.30 L499.24,707.31 L498.71,707.25 L498.36,707.15 L497.74,707.02 L497.28,707.02 L496.74,707.10 L495.59,707.28 L495.14,707.29 L493.40,707.17 L492.30,707.10 L491.17,707.06 L489.71,707.16 L489.00,707.18 L488.56,707.04 L488.16,706.74 L487.50,705.87 L486.05,704.22 L485.43,703.66 L485.13,703.53 L484.71,703.47 L484.34,703.52 L483.98,703.66 L481.18,705.36 L480.80,705.51 L480.30,705.53 L479.99,705.46 L477.61,704.54 L477.08,704.51 L476.78,704.55 L475.19,705.20 L473.74,705.95 L472.02,707.56 L471.64,707.79 L471.21,707.87 L470.08,707.71 L469.74,707.69 L469.48,707.73 L469.18,707.83 L468.84,708.02 L467.77,708.84 L466.68,709.67 L466.28,709.80 L465.96,709.84 L465.85,709.85 L466.03,711.00 L467.35,710.87 L467.51,710.85 L467.35,710.87 L466.03,711.00 L465.85,709.85 L464.62,709.93 L464.14,709.97 L461.85,710.51 L461.16,710.67 L461.00,710.70 L460.84,710.74 L460.74,710.76 L457.97,711.38 L457.49,711.49 L457.28,711.65 L457.12,711.85 L457.00,712.13 L456.98,712.53 L457.07,712.80 L458.37,714.99 L458.54,715.35 L458.62,715.67 L458.86,717.34 L458.86,717.60 L458.69,718.85 L458.67,719.22 L458.79,719.71 L458.98,720.12 L459.18,720.25 L459.42,720.26 L459.74,720.20 L460.71,719.93 L461.25,719.88 L461.65,719.94 L461.85,720.04 L462.04,720.23 L462.15,720.51 L462.15,720.90 L461.38,722.80 L461.36,722.84 L460.68,724.51 L460.69,725.09 L460.99,726.82 L461.21,727.57 L461.73,729.07 L462.04,729.93 L462.75,732.21 L463.26,733.79 L463.31,734.22 L463.22,734.76 L462.69,735.80 L462.59,736.15 L462.54,736.84 L462.70,738.46 L462.67,739.88 L462.70,740.50 L462.86,741.50 L462.86,741.96 L462.46,743.97 L461.68,748.59 L460.71,755.30 L460.48,756.72 L460.02,759.60 L459.40,768.15 L459.37,768.41 L459.59,769.00 L460.10,770.51 L460.44,771.10 L460.64,771.38 L461.11,771.95 L461.61,772.42 L461.82,772.68 L462.13,773.48 L462.31,774.06 L462.50,774.96 L462.72,776.08 L462.92,776.50 L463.39,777.22 L463.65,777.53 L463.76,777.61 L463.93,777.67 L464.61,777.79 L466.35,778.18 L468.05,778.56 L470.31,779.07 L470.42,779.10 L471.59,779.37 L472.79,779.66 L474.38,780.01 L474.75,779.98 L475.55,779.74 L475.79,779.71 L477.01,779.68 L477.93,779.69 L478.25,779.69 L479.23,779.69 L479.36,779.69 L479.23,779.69 L479.35,779.88 L479.37,779.97 L479.36,780.05 L479.29,780.14 L476.71,781.36 L476.42,781.56 L474.94,782.28 L474.91,782.29 L473.84,782.83 L473.52,783.08 L473.09,783.64 L472.96,783.90 L472.71,784.64 L472.60,784.99 L472.08,786.99 L471.84,787.98 L471.55,789.08 L471.22,790.27 L470.93,791.23 L470.87,791.46 L470.94,791.95 L471.08,792.35 L471.12,792.42 L471.19,792.58 L471.28,792.79 L471.37,793.00 L471.47,793.22 L471.53,793.34 L471.63,793.54 L471.68,793.64 L471.76,793.80 L471.93,794.17 L472.83,796.02 L473.15,796.68 L473.50,797.38 L474.11,798.75 L474.28,799.14 L474.43,799.63 L474.62,800.50 L474.84,801.57 L475.33,804.02 L475.54,805.05 L475.90,806.03 L476.58,807.12 L477.46,808.26 L477.86,808.75 L478.24,809.28 L479.08,810.30 L482.08,814.31 L482.81,815.27 L483.45,816.17 L483.98,816.80 L484.42,817.38 L485.40,818.69 L485.69,819.01 L485.85,819.18 L486.39,819.52 L488.34,820.35 L488.92,820.66 L489.24,820.92 L489.47,821.16 L489.81,821.64 L490.23,822.27 L490.46,822.53 L490.86,822.82 L491.51,823.21 L491.85,823.42 L492.19,823.62 L492.32,823.70 L492.57,823.91 L492.80,824.16 L493.39,825.02 L493.50,825.19 L494.36,826.50 L495.11,827.57 L495.36,827.97 L495.45,828.21 L495.56,828.53 L495.59,828.75 L495.57,829.03 L495.45,829.39 L495.23,829.69 L495.01,829.87 L494.68,830.04 L491.54,830.96 L490.74,831.23 L490.33,831.52 L490.21,831.63 L490.04,831.88 L489.89,832.18 L489.77,832.67 L489.73,832.97 L489.64,835.71 L489.63,835.77 L489.59,836.95 L489.59,837.10 L489.58,837.26 L489.50,837.94 L489.39,838.27 L489.25,838.54 L488.80,839.07 L487.97,839.70 L487.53,840.03 L487.20,840.24 L486.79,840.37 L486.59,840.40 L485.89,840.37 L485.41,840.31 L485.17,840.28 L485.30,840.81 L485.28,840.96 L485.45,841.43 L485.78,842.45 L485.93,842.91 L486.12,843.48 L486.32,844.13 L486.41,844.44 L486.51,844.73 L486.74,845.45 L487.04,846.40 L487.11,846.62 L487.13,846.68 L487.19,847.08 L487.14,847.51 L486.90,848.11 L486.46,849.11 L486.02,850.10 L485.51,851.20 L485.50,851.28 L484.82,852.85 L484.56,853.38 L484.30,853.98 L484.17,854.38 L484.11,854.94 L484.19,856.00 L484.38,857.45 L484.53,859.24 L484.44,859.82 L484.21,860.73 L484.22,860.81 L484.28,860.87 L484.68,861.02 L484.93,861.09 L485.65,861.33 L486.06,861.45 L486.38,861.56 L486.43,861.68 L486.32,862.44 L486.30,862.55 L486.14,862.77 L485.74,863.15 L484.50,864.27 L483.32,865.41 L481.27,867.32 L480.63,867.71 L479.98,868.02 L479.74,868.10 L479.27,868.24 L478.58,868.36 L478.12,868.46 L476.49,868.87 L476.19,868.99 L475.34,869.38 L474.02,870.08 L473.51,870.26 L473.01,870.40 L472.60,870.41 L472.22,870.39 L472.11,870.39 L471.88,870.38 L471.71,870.36 L471.60,870.35 L471.53,870.32 L471.19,870.30 L470.87,870.41 L470.58,870.64 L470.26,871.00 L469.45,872.20 L469.03,873.05 L468.97,873.10 L468.92,873.15 L468.38,873.07 L467.70,873.02 L467.01,872.79 L466.63,872.65 L466.42,872.65 L466.23,872.85 L465.82,873.84 L465.58,874.44 L465.55,874.50 L465.02,875.44 L464.45,876.86 L464.25,877.49 L464.27,877.68 L464.43,878.26 L464.51,878.62 L464.52,879.10 L464.37,879.53 L463.95,880.33 L463.73,880.77 L463.50,881.20 L462.92,882.26 L462.43,883.20 L460.59,886.67 L459.74,888.27 L459.45,888.80 L459.19,889.33 L459.05,889.59 L458.96,889.92 L458.93,890.11 L458.92,890.19 L458.85,890.34 L458.66,891.50 L458.56,892.24 L458.26,893.53 L458.18,893.65 L458.06,893.74 L457.90,893.70 L457.55,893.65 L456.66,893.46 L454.99,893.24 L453.27,893.07 L452.11,892.85 L448.22,891.78 L447.43,891.56 L447.06,891.46 L446.72,891.33 L446.20,891.11 L445.49,890.71 L436.51,885.17 L435.36,884.43 L433.20,883.02 L432.26,882.45 L431.83,882.22 L431.09,881.88 L429.65,881.27 L428.57,880.79 L427.61,880.48 L426.87,880.37 L426.55,880.37 L425.96,880.43 L425.39,880.54 L424.47,880.79 L423.52,881.05 L418.68,882.38 L414.49,883.48 L413.70,883.69 L413.02,883.87 L412.82,883.95 L412.73,883.97 L409.95,884.69 L409.42,884.86 L409.12,885.00 L408.03,885.60 L407.33,885.96 L406.93,886.10 L406.88,886.12 L406.51,886.13 L406.00,886.07 L405.93,886.08 L405.63,885.96 L405.53,885.98 L403.71,885.17 L403.09,884.85 L401.85,884.24 L401.63,884.14 L399.23,883.00 L397.57,882.15 L397.23,882.01 L396.84,881.84 L392.86,880.17 L391.72,879.72 L390.99,879.39 L390.37,879.13 L389.98,878.98 L389.82,878.96 L389.68,878.91 L389.29,878.78 L388.51,878.68 L388.23,878.67 L387.95,878.66 L387.34,878.74 L386.59,878.99 L386.25,879.16 L385.90,879.39 L385.52,879.77 L385.27,880.02 L384.99,880.37 L384.79,880.69 L384.39,881.61 L384.32,881.83 L383.47,884.37 L382.37,887.71 L381.82,889.41 L381.12,891.28 L380.64,892.25 L380.32,892.72 L379.58,893.73 L379.08,894.30 L374.97,898.25 L374.81,898.29 L374.69,898.36 L374.19,898.85 L373.88,899.18 L373.86,899.33 L371.76,901.39 L365.86,907.11 L363.37,909.55 L362.80,910.09 L362.16,910.66 L361.96,910.86 L361.49,911.22 L361.29,911.23 L361.34,911.36 L361.06,911.72 L360.82,911.95 L359.39,913.35 L358.29,914.39 L357.89,914.67 L357.25,915.27 L357.18,915.34 L356.55,915.94 L356.28,916.33 L355.12,917.26 L354.33,917.72 L354.30,917.74 L353.76,917.95 L353.02,918.27 L352.47,918.46 L351.75,918.60 L350.71,918.79 L350.36,918.82 L349.38,918.84 L348.69,918.79 L348.03,918.71 L347.26,918.56 L346.59,918.43 L346.05,918.32 L345.56,918.23 L344.28,917.93 L343.76,917.81 L340.96,917.26 L340.62,917.20 L339.70,917.00 L338.85,916.83 L338.75,916.80 L338.46,916.74 L336.93,916.44 L335.84,916.32 L334.55,916.30 L333.56,916.41 L332.78,916.56 L331.80,916.86 L329.80,917.68 L329.23,917.91 L329.01,918.00 L328.30,918.31 L327.69,918.57 L327.00,918.87 L325.74,919.39 L325.28,919.59 L324.34,920.01 L323.22,920.59 L322.67,920.91 L321.46,921.71 L319.21,923.26 L318.23,923.93 L317.29,924.54 L317.01,924.70 L316.71,924.82 L316.47,924.87 L314.15,925.01 L313.75,925.06 L313.23,925.28 L312.42,925.84 L311.89,926.22 L310.91,926.91 L310.39,927.22 L309.95,927.43 L308.10,927.97 L307.46,928.18 L306.28,928.52 L305.90,928.72 L305.55,929.13 L304.51,930.66 L302.86,933.11 L302.48,933.54 L301.96,933.94 L300.74,934.59 L298.78,935.45 L298.29,935.62 L297.34,935.86 L296.43,935.96 L295.94,935.97 L295.21,935.94 L294.79,935.89 L294.70,935.87 L293.20,935.61 L292.66,935.57 L292.40,935.60 L292.10,935.67 L291.61,935.85 L289.63,936.80 L287.93,937.66 L287.81,937.73 L286.99,938.25 L285.03,939.66 L284.59,939.89 L284.26,939.98 L283.98,940.00 L283.62,939.94 L282.86,939.71 L282.30,939.59 L281.76,939.57 L280.84,939.68 L278.82,939.37 L278.42,939.20 L278.14,938.98 L275.85,936.96 L275.59,936.83 L274.54,936.66 L274.26,936.52 L274.13,936.41 L273.88,936.10 L273.11,934.75 L272.80,934.32 L272.16,933.65 L271.58,933.13 L271.37,933.05 L271.23,933.06 L270.84,933.19 L270.63,933.20 L270.06,933.07 L269.65,932.88 L269.53,932.78 L269.13,932.35 L268.96,932.22 L268.13,931.93 L267.89,931.82 L267.76,931.72 L267.58,931.50 L267.47,931.20 L267.43,931.00 L267.47,929.91 L267.52,929.66 L267.62,929.45 L267.84,929.11 L268.00,928.77 L268.09,928.42 L268.26,927.28 L268.31,927.13 L269.00,925.93 L269.28,925.08 L269.37,924.90 L270.12,924.23 L270.26,923.97 L270.33,923.66 L270.36,922.85 L270.62,921.95 L270.66,921.56 L270.57,920.67 L270.58,920.26 L270.63,920.08 L270.96,919.37 L270.97,919.16 L270.92,918.85 L270.46,917.58 L270.36,916.81 L270.37,915.95 L270.28,915.54 L270.13,915.13 L270.09,914.88 L270.10,914.66 L270.41,913.63 L270.43,913.47 L270.42,913.15 L270.34,912.90 L270.19,912.66 L269.84,912.29 L269.52,911.96 L269.42,911.73 L269.40,911.60 L269.36,911.02 L269.49,909.28 L269.47,909.10 L269.42,908.95 L269.02,908.47 L268.97,908.18 L269.12,907.85 L270.09,906.48 L270.22,905.92 L270.18,905.05 L270.17,904.93 L270.14,904.60 L270.04,903.27 L269.97,903.00 L269.74,902.43 L269.55,902.09 L269.41,901.91 L268.75,901.13 L268.38,900.82 L266.63,899.57 L266.30,899.35 L265.91,898.97 L265.52,898.35 L265.44,898.12 L265.34,897.70 L265.22,897.17 L265.19,897.00 L265.03,896.33 L264.79,895.64 L264.10,894.15 L263.54,892.88 L263.46,892.70 L263.32,892.33 L263.24,892.17 L262.82,891.06 L262.50,890.52 L262.15,890.05 L260.80,888.54 L260.26,887.97 L258.92,886.56 L258.80,886.45 L257.98,885.82 L257.24,885.30 L256.43,884.79 L256.29,884.69 L255.96,884.47 L254.28,883.26 L254.11,883.15 L252.02,881.71 L251.05,881.03 L250.82,880.87 L250.67,880.77 L250.07,880.43 L249.78,880.31 L249.38,880.22 L248.70,880.18 L248.14,880.21 L247.39,880.37 L246.78,880.59 L245.40,881.38 L243.87,882.36 L242.98,883.02 L242.85,883.12 L242.09,883.77 L241.54,884.23 L238.74,886.71 L238.17,887.11 L237.81,887.29 L237.38,887.42 L236.85,887.51 L236.09,887.50 L235.14,887.40 L234.46,887.43 L234.12,887.48 L233.23,887.70 L232.82,887.85 L232.01,888.09 L231.49,888.28 L230.47,888.75 L229.62,889.18 L229.44,889.27 L228.93,889.51 L228.19,889.86 L228.09,889.90 L226.57,890.60 L225.30,891.25 L224.30,891.89 L224.10,892.03 L222.97,892.83 L221.34,894.01 L221.20,894.12 L220.57,894.55 L220.05,894.79 L219.36,894.99 L218.88,895.04 L218.47,895.08 L216.97,895.21 L216.49,895.25 L213.84,895.51 L213.61,895.54 L213.46,895.55 L211.75,895.74 L211.09,895.78 L210.72,895.72 L210.39,895.60 L210.05,895.39 L209.89,895.23 L209.69,894.93 L209.48,894.43 L209.45,893.92 L209.49,893.64 L209.60,892.40 L209.56,891.96 L209.43,891.56 L209.24,891.10 L208.95,890.60 L208.27,889.43 L207.54,888.15 L206.63,886.63 L206.54,886.49 L206.15,885.80 L204.82,883.54 L203.91,881.97 L203.36,881.20 L202.31,880.11 L202.20,880.00 L201.68,879.48 L201.64,879.44 L201.56,879.36 L200.37,878.05 L199.79,877.43 L199.49,877.11 L199.27,876.88 L199.09,876.71 L196.03,873.68 L195.90,873.54 L195.63,873.24 L195.34,872.91 L195.15,872.69 L194.79,872.30 L194.36,871.83 L194.21,871.66 L193.38,870.73 L192.83,870.17 L192.12,869.40 L191.92,869.21 L191.72,869.02 L191.49,868.76 L190.57,867.72 L190.39,867.54 L190.26,867.40 L188.43,865.51 L188.10,865.17 L188.02,865.08 L186.49,863.45 L186.39,863.34 L185.17,862.07 L183.50,860.30 L183.30,859.92 L183.08,859.34 L182.70,858.25 L182.21,857.00 L182.11,856.71 L181.90,856.14 L181.83,855.98 L181.67,855.69 L181.52,855.50 L181.31,855.23 L181.08,854.96 L180.80,854.64 L177.59,850.99 L177.10,850.50 L176.70,850.09 L174.54,847.96 L174.33,847.76 L174.18,847.60 L174.02,847.45 L173.68,847.10 L172.97,846.41 L171.99,845.48 L171.81,845.32 L171.24,844.91 L170.71,844.71 L170.45,844.64 L170.36,844.62 L169.81,844.45 L167.61,843.75 L165.43,843.07 L165.29,843.03 L165.12,842.97 L164.47,842.77 L163.84,842.58 L163.44,842.50 L162.69,842.51 L162.40,842.56 L162.12,842.65 L161.48,842.86 L160.86,842.91 L160.43,842.87 L160.04,842.81 L159.36,842.66 L158.85,842.55 L158.61,842.50 L158.51,842.47 L157.79,842.25 L156.25,841.64 L156.00,841.53 L155.30,841.22 L155.14,841.16 L154.55,840.97 L154.39,840.95 L154.25,840.94 L153.74,840.87 L152.95,840.70 L152.63,840.65 L152.18,840.69 L151.63,840.86 L151.00,841.02 L149.92,840.89 L149.18,840.73 L148.65,840.54 L148.17,840.28 L148.06,840.21 L147.90,840.12 L147.36,839.96 L147.24,839.94 L147.03,839.93 L146.65,839.96 L146.36,839.99 L146.16,840.01 L145.87,840.02 L145.39,840.00 L145.14,839.97 L144.99,839.95 L144.63,839.90 L144.45,839.86 L143.87,839.70 L143.72,839.63 L143.51,839.53 L143.18,839.31 L142.87,839.05 L142.61,838.83 L142.47,838.71 L141.87,838.19 L141.23,837.84 L141.03,837.78 L140.37,837.61 L139.93,837.50 L139.89,837.67 L139.66,837.85 L139.48,837.97 L139.18,838.14 L138.95,838.32 L138.79,838.45 L138.69,838.54 L138.30,839.07 L138.02,839.74 L137.99,839.94 L137.98,840.02 L137.79,841.31 L137.73,841.55 L137.55,841.84 L136.53,841.69 L135.78,841.58 L135.39,841.52 L134.69,841.42 L134.55,841.39 L134.18,841.31 L133.68,841.10 L133.37,841.01 L132.75,840.94 L131.79,841.03 L131.68,841.05 L130.68,841.24 L130.12,841.36 L129.67,841.59 L129.51,841.69 L129.49,841.70 L129.25,841.74 L128.78,841.75 L128.55,841.75 L128.18,841.76 L127.30,841.80 L126.90,841.89 L126.78,841.92 L126.56,841.96 L125.61,842.05 L125.37,842.07 L125.15,842.09 L124.04,842.15 L123.88,842.18 L122.23,842.81 L121.86,842.92 L121.11,842.93 L120.43,842.86 L119.69,842.53 L119.19,842.30 L117.35,841.51 L116.81,841.27 L116.17,840.99 L115.98,840.90 L114.78,840.41 L113.34,839.79 L112.58,839.56 L111.91,839.39 L111.79,839.39 L111.66,839.43 L111.26,839.55 L111.11,839.55 L109.76,839.60 L109.65,839.55 L109.57,839.39 L109.54,839.18 L109.47,838.54 L109.50,838.26 L109.62,838.02 L109.58,838.00 L109.41,837.92 L109.35,837.92 L109.28,837.93 L109.12,837.97 L108.94,838.11 L108.34,838.50 L107.82,838.73 L107.09,839.17 L106.69,839.30 L106.07,839.31 L105.99,839.32 L105.59,839.31 L105.09,839.29 L104.53,839.27 L104.48,839.27 L104.33,839.28 L103.75,839.34 L103.68,839.35 L103.63,839.35 L103.02,839.36 L102.11,839.37 L102.06,839.37 L101.33,839.39 L101.27,839.39 L100.94,839.41 L100.68,839.43 L100.11,839.49 L99.97,838.64 L99.82,837.62 L99.77,837.09 L99.75,836.73 L99.61,835.76 L99.58,835.45 L99.51,834.72 L99.48,834.45 L99.44,833.92 L99.38,833.40 L99.32,832.91 L99.26,832.45 L99.20,832.07 L99.08,831.10 L98.89,829.55 L98.85,829.20 L98.73,828.58 L98.67,828.32 L98.24,826.84 L97.67,824.13 L97.38,822.88 L97.34,822.57 L97.13,819.66 L96.95,818.97 L96.88,818.63 L96.76,817.98 L96.61,817.24 L96.54,816.91 L96.33,815.89 L95.41,813.42 L94.92,812.05 L94.80,811.56 L94.52,810.22 L94.21,808.76 L94.02,808.00 L93.28,806.33 L92.65,804.74 L92.56,804.51 L92.47,804.29 L91.95,802.98 L91.56,801.86 L91.33,801.17 L91.11,800.50 L90.55,798.62 L90.50,798.41 L90.60,798.40 L90.50,798.41 L90.39,798.07 L90.24,797.41 L90.12,796.88 L90.11,796.83 L90.08,796.74 L90.23,796.59 L90.23,796.39 L90.18,796.31 L90.02,796.24 L90.01,796.12 L89.94,795.57 L89.83,794.65 L89.77,794.19 L89.59,792.85 L89.19,789.84 L89.17,789.73 L89.15,789.61 L89.12,789.34 L89.09,789.17 L88.87,787.49 L88.80,786.88 L88.35,783.50 L88.26,782.83 L88.18,782.22 L88.09,781.55 L88.06,781.31 L87.72,778.92 L87.65,778.34 L87.40,776.40 L87.12,773.80 L87.12,773.66 L87.15,773.49 L87.13,773.35 L87.00,773.13 L86.93,773.03 L86.87,772.87 L86.83,772.68 L86.76,772.39 L86.60,771.82 L86.14,770.19 L85.98,770.00 L85.93,769.82 L85.73,769.26 L85.62,768.97 L85.50,768.66 L85.02,767.62 L84.79,767.23 L84.20,766.16 L83.90,765.74 L83.49,765.32 L83.18,765.07 L82.13,764.27 L81.38,763.81 L81.18,763.69 L80.09,763.04 L79.66,762.62 L79.55,762.38 L79.50,762.10 L79.64,761.17 L79.68,761.00 L79.74,760.61 L79.73,760.36 L79.53,759.94 L79.20,759.62 L78.96,759.36 L78.87,759.21 L78.79,758.83 L78.80,758.56 L79.06,757.69 L79.07,757.54 L79.00,757.16 L78.77,756.81 L77.68,756.07 L77.60,755.98 L77.52,755.79 L77.49,755.60 L77.47,755.35 L77.48,754.97 L77.49,754.77 L77.49,754.52 L77.54,754.02 L77.45,753.58 L77.37,753.40 L76.75,752.71 L76.36,752.27 L76.15,752.08 L75.91,751.80 L75.79,751.54 L75.76,751.29 L75.80,750.97 L75.94,750.53 L76.50,749.27 L76.73,748.70 L77.02,747.96 L77.17,747.57 L77.23,747.29 L77.20,746.99 L77.05,746.66 L76.59,746.22 L75.28,745.28 L74.85,745.07 L74.52,744.96 L74.15,744.91 L73.84,744.94 L73.57,745.07 L73.06,745.45 L72.28,745.81 L72.03,745.79 L71.63,745.55 L71.47,745.35 L71.26,744.76 L71.36,744.61 L71.36,744.61 L71.36,744.61 L71.26,744.76 L71.18,744.43 L71.15,744.32 L71.11,743.99 L71.13,743.80 L71.16,743.62 L71.31,743.27 L71.67,742.82 L71.99,742.60 L73.94,741.86 L74.16,741.70 L74.28,741.58 L74.48,741.27 L74.54,740.84 L74.47,740.62 L74.47,740.62 L74.39,740.48 L74.11,740.27 L73.31,739.97 L72.89,739.84 L72.51,739.72 L71.99,739.48 L71.79,739.32 L71.67,739.16 L71.59,738.78 L71.59,738.55 L71.67,738.34 L71.99,737.97 L72.18,737.87 L73.09,737.68 L73.38,737.57 L73.61,737.40 L73.84,737.17 L74.01,736.73 L74.05,736.54 L74.06,736.35 L74.01,736.05 L73.86,735.73 L73.51,735.30 L72.46,734.25 L72.12,733.95 L71.26,733.48 L70.31,732.91 L69.75,732.49 L69.62,732.36 L69.57,732.27 L69.46,732.07 L69.42,731.91 L69.45,731.64 L69.58,731.40 L69.79,731.20 L70.60,730.91 L70.74,730.81 L70.88,730.67 L70.99,730.32 L70.87,729.88 L70.81,729.78 L70.60,729.58 L70.26,729.45 L69.50,729.34 L68.71,729.29 L68.31,729.32 L67.41,729.54 L67.01,729.50 L66.66,729.33 L66.38,729.11 L66.22,728.86 L66.17,728.71 L66.18,728.55 L66.18,728.23 L66.29,727.94 L66.96,726.73 L67.20,726.48 L67.50,726.27 L67.86,726.14 L68.30,726.03 L68.49,725.95 L68.64,725.83 L68.73,725.68 L68.80,725.50 L68.84,725.15 L68.78,724.49 L68.76,723.88 L68.80,723.72 L68.98,723.43 L69.07,723.35 L69.30,723.24 L70.05,723.14 L70.28,723.04 L70.44,722.86 L70.76,721.82 L70.82,721.72 L71.01,721.50 L71.47,721.22 L72.42,720.77 L72.68,720.56 L72.78,720.37 L72.82,720.00 L72.74,719.52 L72.57,719.18 L72.38,719.05 L72.17,718.98 L71.97,718.96 L70.93,719.26 L70.48,719.27 L70.22,719.20 L69.95,719.07 L69.77,718.87 L69.49,718.31 L69.41,718.24 L69.32,718.13 L69.14,717.96 L69.07,717.83 L69.07,717.72 L69.78,714.60 L69.76,713.88 L69.65,713.55 L69.38,713.13 L69.22,713.00 L68.69,712.78 L68.50,712.67 L68.37,712.51 L68.10,712.06 L68.03,711.87 L68.05,711.66 L68.10,711.50 L68.66,711.02 L68.82,710.80 L68.82,710.69 L68.70,710.53 L68.35,710.26 L68.21,710.12 L68.17,709.99 L68.14,709.56 L68.08,708.75 L67.99,707.96 L67.93,707.78 L67.84,707.66 L67.18,707.02 L67.04,706.82 L66.47,705.47 L66.19,704.88 L66.02,704.70 L65.83,704.59 L65.43,704.43 L64.61,704.09 L63.32,703.33 L62.71,702.96 L61.27,702.11 L60.76,701.64 L60.48,701.32 L60.29,700.97 L60.20,700.68 L60.22,700.41 L60.34,700.12 L60.53,699.85 L60.76,699.33 L61.13,697.88 L61.51,695.85 L61.88,694.12 L61.96,693.44 L61.94,693.02 L61.89,692.71 L61.81,692.51 L61.54,692.04 L61.52,692.00 L61.20,691.52 L61.10,691.10 L61.09,690.96 L61.17,690.19 L61.17,689.97 L60.97,688.69 L60.91,688.49 L60.84,688.38 L60.92,688.18 L60.99,686.65 L60.95,686.35 L60.91,686.16 L60.82,685.73 L60.84,684.88 L60.79,684.23 L60.79,683.92 L60.92,683.24 L61.15,682.49 L61.37,681.80 L61.36,681.46 L61.18,680.94 L61.07,680.42 L60.57,679.75 L60.52,679.58 L60.52,679.26 L60.65,678.70 L60.65,678.56 L60.60,678.46 L60.29,678.16 L60.16,677.97 L60.19,677.63 L60.23,676.97 L60.18,675.59 L60.00,675.60 L60.14,675.25 L60.65,674.13 L61.22,672.53 L61.58,671.60 L61.64,671.03 L61.66,670.35 L61.73,670.10 L61.94,669.90 L62.52,669.48 L62.64,669.32 L62.70,669.13 L62.70,668.92 L62.64,668.68 L62.43,668.02 L62.33,667.25 L62.29,666.96 L62.23,666.40 L62.24,665.87 L62.28,665.42 L62.26,664.83 L62.15,664.45 L61.84,663.63 L61.66,663.15 L61.59,662.58 L61.66,662.00 L61.74,661.68 L61.95,661.07 L62.23,660.52 L62.45,660.26 L62.64,660.08 L63.33,659.61 L64.33,659.05 L64.70,658.77 L65.94,657.58 L66.72,656.96 L67.61,656.36 L67.96,656.20 L69.25,655.83 L69.88,655.48 L70.18,655.22 L70.62,654.65 L70.74,654.51 L71.13,654.17 L71.41,653.99 L71.63,653.88 L72.06,653.75 L72.63,653.69 L73.07,653.69 L74.18,653.65 L74.68,653.64 L75.52,653.59 L75.97,653.57 L76.70,653.47 L77.63,653.32 L78.37,653.21 L78.63,653.13 L78.87,653.02 L79.07,652.88 L79.62,652.38 L79.78,652.12 L79.88,651.87 L80.31,650.64 L80.52,650.15 L80.99,649.53 L81.55,648.88 L82.06,648.02 L82.58,647.15 L82.97,646.58 L83.75,645.84 L84.43,645.32 L85.12,644.79 L85.48,644.51 L86.07,643.95 L86.52,643.32 L86.90,642.54 L87.30,641.34 L87.67,640.60 L88.14,639.71 L88.21,639.58 L88.63,638.83 L88.80,638.61 L89.04,638.38 L89.27,638.21 L89.53,638.08 L89.90,637.94 L90.32,637.86 L90.36,637.85 L90.74,637.73 L90.69,637.23 L90.72,636.66 L90.83,636.15 L91.07,635.48 L91.20,635.23 L91.64,634.62 L91.79,634.45 L92.11,634.19 L92.54,633.76 L93.20,633.12 L93.65,632.68 L93.70,632.63 L96.17,630.26 L96.49,629.94 L97.27,629.15 L97.76,628.47 L98.01,627.92 L98.20,627.25 L98.25,626.79 L98.26,626.33 L98.21,625.87 L98.11,625.36 L97.85,624.42 L97.81,624.13 L97.82,623.50 L98.06,622.82 L98.51,622.16 L99.07,621.47 L99.24,621.18 L99.42,620.67 L99.50,620.25 L99.48,619.76 L99.41,619.31 L99.24,618.76 L98.81,617.60 L98.23,615.93 L97.81,614.60 L97.67,613.89 L97.67,613.37 L97.79,613.03 L98.04,612.62 L98.38,612.23 L98.69,612.05 L99.06,611.90 L99.40,611.81 L100.54,611.49 L101.01,611.29 L101.66,611.01 L102.29,610.52 L102.72,610.07 L103.03,609.64 L103.23,609.29 L103.82,607.77 L104.76,605.06 L105.30,603.44 L105.36,603.07 L105.40,602.84 L105.41,601.04 L105.49,600.40 L105.68,599.59 L106.83,595.99 L107.01,595.55 L107.30,595.10 L108.51,593.74 L109.10,593.18 L109.42,592.96 L110.07,592.58 L110.80,592.23 L111.12,592.12 L112.15,591.90 L112.88,591.68 L115.58,590.49 L116.72,589.90 L117.23,589.72 L117.92,589.58 L118.95,589.39 L119.23,589.34 L119.25,589.33 L120.10,589.04 L122.59,587.98 L123.12,587.71 L123.53,587.46 L123.79,587.25 L124.86,586.09 L125.52,585.26 L125.84,584.89 L126.09,584.67 L126.80,584.19 L129.51,582.58 L129.91,582.34 L131.30,581.34 L131.87,580.82 L132.14,580.50 L133.50,578.64 L134.73,577.41 L135.47,576.77 L136.14,576.06 L136.83,575.20 L137.07,574.97 L137.76,574.56 L138.09,574.42 L139.23,574.03 L139.55,573.81 L139.68,573.67 L139.85,573.35 L140.17,572.27 L140.77,570.34 L141.51,568.65 L141.85,568.05 L142.07,567.77 L142.32,567.52 L143.32,566.76 L145.05,565.14 L146.57,563.80 L147.48,563.10 L148.45,562.28 L148.90,562.00 L149.12,561.90 L149.52,561.75 L150.09,561.58 L151.94,560.84 L153.37,560.40 L154.53,560.15 L155.06,560.00 L157.70,558.84 L158.63,558.40 L159.47,557.87 L160.52,557.05 L160.77,556.83 L161.29,556.28 L161.59,555.81 L161.75,555.36 L161.96,553.93 L162.13,553.38 L162.46,552.79 L162.74,552.46 L162.95,552.31 L163.29,552.20 L163.53,552.18 L163.69,552.20 L165.20,552.58 L166.65,552.69 L167.90,552.71 L168.20,552.66 L168.51,552.52 L168.86,552.20 L169.08,551.87 L169.15,551.70 L169.20,551.36 L169.11,550.90 L167.55,545.54 L167.51,545.31 L167.52,544.94 L167.58,544.68 L167.75,544.28 L167.92,544.05 L168.21,543.79 L171.42,541.36 L171.63,541.14 L171.82,540.92 L171.97,540.68 L173.53,538.00 L174.00,537.30 L174.60,536.52 L176.33,534.19 L177.12,533.25 L177.46,532.72 L178.34,531.16 L179.32,528.97 L180.19,527.16 L180.83,525.98 L181.28,525.25 L182.97,522.44 L183.56,521.48 L184.42,520.10 L184.92,519.35 L185.61,518.43 L186.91,516.79 L187.44,516.12 L187.57,516.01 L187.82,515.82 L190.71,514.04 L191.96,513.19 L192.01,513.14 L192.62,512.68 L192.68,512.63 L193.09,512.32 L193.42,512.07 L194.66,510.97 L194.93,510.70 L195.00,510.64 L196.74,508.75 L197.16,508.02 L198.08,506.34 L198.27,505.99 L199.00,504.64 L199.39,503.90 L200.76,500.45 L202.34,496.51 L203.48,493.67 L206.83,485.54 L207.86,482.95 L207.91,482.82 L207.93,482.76 L208.27,481.93 L209.20,479.59 L210.50,476.42 L210.59,475.82 L210.40,473.65 L210.36,472.58 L210.45,472.11 L210.52,471.92 L210.77,471.50 L210.91,471.30 L211.92,470.29 L212.06,470.03 L212.15,469.66 L212.24,468.00 L212.23,467.74 L212.22,467.55 L212.13,466.95 L211.97,466.45 L211.82,466.20 L211.70,466.08 L211.51,466.00 L211.23,465.99 L210.68,466.05 L210.40,466.00 L210.19,465.85 L210.06,465.60 L210.00,465.37 L210.06,464.96 L210.43,464.23 L211.29,462.42 L211.35,462.08 L211.29,461.40 L211.33,461.06 L211.53,460.62 L211.89,460.01 L212.82,458.41 L212.91,458.23 L212.98,457.97 L212.95,457.71 L212.81,457.47 L212.58,457.23 L211.90,456.65 L211.54,456.35 L211.24,455.99 L210.94,455.47 L210.70,454.95 L210.63,454.68 L210.64,454.48 L210.68,454.30 L210.97,453.64 L211.02,453.41 L210.94,453.02 L210.86,452.88 L210.59,452.59 L209.59,451.79 L209.17,451.38 L208.88,451.01 L208.61,450.49 L208.49,450.18 L208.44,449.71 L208.54,449.37 L208.65,449.18 L208.78,449.03 L209.55,448.40 L209.91,448.05 L210.57,447.27 L210.79,446.83 L210.97,446.29 L211.05,445.90 L211.06,445.57 L211.00,445.28 L210.92,445.09 L210.76,444.87 L209.74,443.71 L208.72,442.53 L206.57,440.09 L206.28,439.70 L206.18,439.39 L206.17,438.99 L206.37,438.22 L206.45,437.72 L206.37,436.21 L206.30,435.06 L206.29,434.75 L206.24,433.66 L206.09,431.91 L206.01,431.73 L205.77,431.45 L205.28,431.15 L205.00,430.94 L204.89,430.78 L204.81,430.61 L204.79,430.44 L204.79,429.32 L204.75,429.14 L204.67,429.00 L204.24,428.49 L203.90,427.98 L203.83,427.45 L203.84,427.19 L203.88,426.71 L204.16,424.81 L204.17,424.74 L204.22,424.34 L204.82,419.86 L204.82,419.58 L204.67,418.91 L204.31,418.07 L204.20,417.77 L204.13,417.48 L204.11,417.29 L204.12,416.85 L204.31,416.32 L204.67,415.79 L205.23,415.36 L205.53,415.17 L205.84,414.98 L206.66,414.45 L207.75,413.77 L210.16,412.22 L210.96,411.77 L211.21,411.69 L211.75,411.65 L213.48,411.80 L214.07,411.83 L214.56,411.71 L214.83,411.55 L215.06,411.38 L215.30,411.05 L215.44,410.79 L215.96,409.88 L216.39,409.10 L217.48,406.29 L217.87,405.24 L217.89,405.02 L217.82,404.22 L217.59,403.03 L217.52,402.64 L217.55,402.12 L217.73,401.64 L218.03,401.20 L218.07,401.16 L218.46,400.71 L218.92,400.02 L219.16,399.45 L219.31,398.72 L219.51,397.65 L219.73,397.09 L219.84,396.90 L219.98,396.63 L220.06,396.46 L220.20,396.23 L220.51,395.64 L221.04,394.75 L221.29,394.44 L221.47,394.29 L221.68,394.18 L222.76,393.76 L223.26,393.63 L223.73,393.55 L223.79,393.54 L224.23,393.48 L224.49,393.44 L224.63,393.42 L225.00,393.37 L225.13,393.35 L225.54,393.28 L225.66,393.23 L226.01,393.01 L226.12,392.88 L226.20,392.75 L226.48,391.85 L226.95,390.41 L227.13,389.73 L227.34,389.03 L227.37,388.74 L227.34,388.43 L227.18,387.71 L226.91,386.73 L226.91,386.38 L227.05,386.02 L227.27,385.61 L227.73,384.15 L227.83,383.78 L227.83,383.51 L227.75,383.28 L227.09,382.45 L226.96,382.35 L226.53,382.14 L226.45,382.05 L226.25,381.65 L225.99,380.95 L225.55,380.32 L225.46,379.64 L225.23,379.26 L225.18,379.10 L225.07,378.54 L225.07,378.36 L225.17,377.79 L225.14,377.57 L225.06,377.39 L224.90,377.21 L224.58,377.05 L224.37,376.98 L223.65,376.87 L223.29,376.76 L222.87,376.55 L222.55,376.22 L222.31,375.89 L222.17,375.55 L222.07,375.32 L221.97,374.96 L221.91,374.71 L221.85,374.06 L221.76,373.56 L221.35,372.31 L220.64,370.30 L220.47,369.65 L220.43,369.32 L220.21,366.74 L220.13,366.17 L219.99,365.93 L219.80,365.70 L219.32,365.32 L218.65,364.77 L218.49,364.58 L218.25,364.33 L217.67,363.57 L217.30,363.00 L217.18,362.72 L216.99,361.91 L216.35,361.09 L216.18,360.81 L216.12,360.67 L215.84,360.13 L215.65,359.92 L215.39,359.78 L214.93,359.63 L214.41,359.36 L213.82,358.87 L213.54,358.57 L213.41,358.23 L213.27,357.59 L212.35,355.73 L212.25,355.55 L211.98,355.00 L211.67,354.35 L211.38,353.63 L210.98,352.88 L210.83,352.68 L210.50,352.47 L210.19,352.42 L209.60,352.43 L209.39,352.39 L209.26,352.34 L208.76,352.00 L208.34,351.82 L206.84,351.31 L204.22,350.95 L203.61,350.67 L203.15,350.51 L202.33,350.50 L201.93,350.42 L201.59,350.25 L201.53,350.21 L201.44,350.14 L201.27,350.00 L200.99,349.68 L200.76,349.31 L200.65,349.12 L200.29,348.57 L200.16,348.43 L199.28,347.64 L198.65,347.13 L198.00,346.73 L197.27,346.34 L197.01,346.08 L196.91,345.80 L196.88,344.88 L196.87,344.72 L196.78,344.21 L196.69,343.84 L196.45,343.04 L196.21,342.66 L195.80,342.23 L194.92,341.59 L194.77,341.41 L194.68,341.20 L194.53,340.63 L194.44,340.33 L194.30,340.09 L193.94,339.66 L193.68,339.47 L193.62,339.43 L192.95,339.11 L192.69,338.98 L192.49,338.83 L191.89,338.14 L191.70,338.00 L191.67,337.97 L191.32,337.72 L190.82,337.40 L190.42,337.24 L190.11,337.22 L189.62,337.29 L189.55,337.31 L189.17,337.36 L188.94,337.33 L188.73,337.23 L188.55,337.07 L188.44,336.85 L187.98,335.54 L187.91,335.04 L187.91,334.99 L187.96,334.72 L188.04,334.50 L188.06,334.46 L188.73,333.61 L188.80,333.44 L188.86,333.17 L188.84,332.95 L188.79,332.74 L188.68,332.53 L188.48,332.30 L188.04,332.02 L187.94,331.96 L187.69,331.79 L187.52,331.69 L187.31,331.55 L187.00,331.32 L186.86,331.16 L186.79,330.95 L186.74,330.34 L186.66,330.13 L186.54,329.97 L186.04,329.56 L185.78,329.31 L185.70,329.12 L185.66,328.92 L185.66,328.84 L185.71,328.58 L185.83,328.37 L185.97,328.21 L186.51,327.79 L187.18,327.25 L187.28,327.17 L188.44,326.33 L188.67,326.23 L188.90,326.19 L189.18,326.21 L189.34,326.24 L189.77,326.44 L189.89,326.50 L190.39,326.72 L190.65,326.82 L191.03,326.86 L191.30,326.85 L191.70,326.72 L192.09,326.49 L192.41,326.15 L192.57,325.86 L192.66,325.60 L192.67,325.54 L192.73,324.74 L192.74,324.40 L192.75,324.23 L192.77,323.46 L192.77,322.77 L192.73,322.36 L192.59,321.86 L192.41,321.48 L192.23,321.54 L191.92,320.87 L191.89,320.79 L191.92,320.87 L192.23,321.54 L192.41,321.48 L192.18,321.00 L192.05,320.46 L192.05,320.10 L192.33,318.70 L192.43,318.30 L192.59,317.93 L192.69,317.78 L193.04,317.43 L193.45,317.20 L194.24,316.94 L194.38,316.87 L194.57,316.74 L194.84,316.39 L195.39,315.48 L195.58,315.16 L196.09,314.27 L196.24,313.94 L196.43,313.43 L196.51,313.19 L196.61,312.63 L196.66,312.18 L196.72,311.56 L196.83,310.57 L196.94,309.65 L196.96,309.48 L197.04,308.76 L197.10,308.30 L197.22,307.63 L197.29,307.50 L197.50,307.15 L197.75,306.82 L199.07,305.51 L200.06,304.32 L200.32,304.11 L200.77,303.88 L201.07,303.76 L201.28,303.69 L201.79,303.54 L202.75,303.23 L202.92,303.17 L204.31,302.70 L204.98,302.38 L205.07,302.33 L205.12,302.30 L205.68,302.03 L205.97,301.90 L206.30,301.81 L206.48,301.81 L206.71,301.87 L206.96,302.00 L207.22,302.22 L207.42,302.51 L207.51,302.71 L207.57,303.08 L207.50,303.43 L207.43,303.58 L207.32,303.72 L207.17,303.80 L207.03,303.84 L206.76,303.81 L206.61,303.76 L206.48,303.68 L206.37,303.61 L206.26,303.48 L205.60,301.95 L205.07,300.94 L204.94,300.99 L203.83,298.77 L203.48,298.07 L202.49,296.06 L202.21,295.49 L201.88,294.81 L201.54,294.17 L201.23,293.65 L201.04,293.42 L200.62,293.05 L200.58,293.03 L200.21,292.82 L200.11,292.77 L199.60,292.50 L199.23,292.33 L198.73,292.10 L198.42,291.95 L197.57,291.56 L197.30,291.44 L197.10,291.34 L194.77,290.24 L193.77,289.76 L193.12,289.47 L192.85,289.34 L192.81,289.32 L192.67,289.26 L191.94,288.91 L191.45,288.58 L190.91,288.06 L190.55,287.61 L190.51,287.54 L190.34,287.25 L190.24,287.04 L189.94,286.33 L189.79,285.66 L189.75,284.96 L189.77,284.61 L189.90,283.94 L190.20,283.09 L191.51,279.62 L191.64,279.27 L191.69,279.15 L191.74,279.02 L191.80,278.84 L192.05,278.16 L192.24,277.66 L192.38,277.31 L192.59,276.63 L192.60,276.34 L192.54,276.01 L192.43,275.73 L192.28,275.50 L192.09,275.30 L191.76,275.11 L191.21,274.86 L191.09,274.80 L189.87,274.26 L188.80,273.78 L187.41,273.17 L186.97,272.98 L186.44,272.74 L186.00,272.55 L185.87,272.49 L185.78,272.45 L185.35,272.25 L184.77,271.99 L184.37,271.81 L183.97,271.63 L183.93,271.61 L181.36,270.45 L180.48,270.04 L180.12,269.83 L179.83,269.63 L179.25,269.24 L178.78,269.07 L177.77,268.82 L177.43,268.70 L177.05,268.51 L176.85,268.36 L176.49,267.99 L176.21,267.50 L176.10,267.15 L175.97,266.02 L175.96,265.94 L175.92,265.58 L175.89,265.30 L175.83,264.84 L175.74,264.07 L175.72,263.90 L175.33,260.56 L175.25,259.91 L175.17,259.56 L174.97,258.15 L174.87,256.92 L174.88,256.58 L174.60,254.26 L174.53,253.71 L174.50,253.47 L174.50,252.93 L174.34,251.54 L174.32,251.45 L174.01,248.77 L173.91,248.39 L173.86,248.02 L173.81,247.61 L173.73,247.32 L173.62,246.51 L173.37,244.46 L173.10,242.23 L172.88,240.14 L172.96,239.88 L172.89,239.23 L172.82,238.60 L172.67,238.29 L172.58,237.51 L172.48,236.73 L172.25,234.80 L172.20,234.37 L171.98,232.40 L171.50,228.16 L171.34,226.70 L171.16,225.18 L171.11,224.41 L171.00,223.42 L170.97,223.12 L170.62,220.12 L170.56,219.67 L170.46,218.74 L170.58,218.46 L170.63,218.21 L170.64,217.94 L170.49,216.79 L170.48,216.73 L170.46,216.45 L170.30,214.97 L170.28,214.83 L170.21,214.31 L170.12,213.74 L170.01,212.79 L169.99,212.63 L169.91,211.96 L169.88,211.67 L169.82,211.14 L169.78,210.48 L169.63,209.37 L169.69,209.28 L169.77,209.17 L169.90,209.04 L170.17,208.94 L170.29,208.93 L172.49,208.67 L172.74,208.64" fill="none" stroke="#e8b21a" stroke-width="4" stroke-linejoin="round" stroke-linecap="round"/><circle cx="251.03" cy="60.00" r="5" fill="#ff2a0c" stroke="#ff2a0c" stroke-width="2"/><circle cx="536.21" cy="515.31" r="5" fill="#ff2a0c" stroke="#ff2a0c" stroke-width="2"/><circle cx="270.09" cy="906.48" r="5" fill="#ff2a0c" stroke="#ff2a0c" stroke-width="2"/><circle cx="90.83" cy="636.15" r="5" fill="#ff2a0c" stroke="#ff2a0c" stroke-width="2"/><circle cx="172.74" cy="208.64" r="5" fill="#ff2a0c" stroke="#ff2a0c" stroke-width="2"/><text x="233.03" y="46.00" fill="#ffffff" font-family="Inter, system-ui, -apple-system, Segoe UI, Roboto, Arial, sans-serif" font-size="20" text-anchor="end">Zcalo CDMX  Salida  Km 0</text><rect x="173" y="163" width="300" height="42" fill="#cf9c20" rx="15" ry="15"></rect><text x="518.21" y="539.31" fill="#ffffff" font-family="Inter, system-ui, -apple-system, Segoe UI, Roboto, Arial, sans-serif" font-size="20" text-anchor="end">La Loma  Km 50  1100 msnm</text><rect x="278" y="867" width="355" height="42" fill="#cf9c20" rx="15" ry="15"></rect><text x="282.09" y="894.48" fill="#ffffff" font-family="Inter, system-ui, -apple-system, Segoe UI, Roboto, Arial, sans-serif" font-size="20" text-anchor="start">Can de Lobos  Km 110  1750 msnm</text><text x="102.83" y="658.15" fill="#ffffff" font-family="Inter, system-ui, -apple-system, Segoe UI, Roboto, Arial, sans-serif" font-size="20" text-anchor="start">Tres Maras  Km 145</text><text x="184.74" y="192.64" fill="#ffffff" font-family="Inter, system-ui, -apple-system, Segoe UI, Roboto, Arial, sans-serif" font-size="20" text-anchor="start">Okupache C.U.  Meta  Km 187</text></svg>