<svg xmlns="http://www.w3.org/2000/svg" viewBox="-245 0 2100 480"><path d="M50.00,215.72 L50.59,215.72 L50.85,215.71 L51.68,215.65 L52.45,215.60 L52.99,215.63 L53.19,215.75 L53.20,215.77 L53.95,215.82 L55.50,215.88 L55.55,215.91 L56.09,215.97 L56.93,216.02 L57.28,216.04 L58.27,216.08 L59.35,216.12 L59.44,216.12 L62.19,216.14 L63.15,216.15 L63.33,216.15 L64.11,216.15 L64.89,216.14 L65.06,216.13 L65.32,216.12 L66.05,216.13 L66.32,216.13 L67.44,216.16 L68.04,216.18 L68.49,216.19 L68.92,216.22 L69.72,216.24 L70.19,216.25 L70.84,216.26 L71.30,216.27 L71.44,216.27 L71.94,216.27 L72.59,216.27 L73.16,216.26 L73.92,216.24 L74.60,216.22 L75.31,216.21 L75.64,216.18 L76.52,216.17 L77.35,216.16 L78.44,216.15 L78.79,216.14 L79.56,216.13 L80.87,216.12 L82.16,216.11 L83.59,216.10 L83.83,216.09 L85.00,216.08 L86.50,216.08 L86.85,216.07 L87.15,216.06 L87.79,216.06 L88.71,216.04 L90.06,216.02 L90.22,216.01 L91.63,215.98 L93.38,215.96 L93.52,215.94 L94.24,215.92 L95.11,215.90 L95.74,215.89 L96.93,215.87 L98.13,215.84 L99.18,215.80 L99.49,215.77 L99.87,215.71 L100.39,215.65 L100.57,215.62 L102.66,215.58 L104.66,215.54 L106.39,215.51 L106.69,215.46 L108.29,215.41 L108.33,215.39 L108.49,215.33 L108.95,215.29 L109.52,215.27 L111.67,215.25 L112.42,215.23 L113.07,215.21 L113.33,215.17 L114.22,215.11 L114.92,215.08 L115.06,215.02 L115.23,214.95 L116.48,214.92 L116.70,214.87 L117.95,214.82 L118.00,214.79 L118.44,214.75 L119.27,214.71 L120.59,214.69 L121.65,214.68 L121.76,214.67 L122.30,214.68 L122.96,214.69 L123.49,214.71 L124.11,214.72 L125.01,214.74 L125.67,214.75 L125.96,214.75 L127.13,214.74 L128.15,214.71 L128.33,214.70 L129.17,214.65 L129.89,214.60 L130.02,214.58 L131.16,214.51 L132.25,214.45 L132.48,214.41 L132.84,214.34 L133.14,214.28 L133.46,214.25 L134.27,214.19 L134.85,214.16 L135.45,214.15 L135.72,214.13 L136.35,214.11 L136.78,214.10 L138.00,214.09 L138.64,214.09 L139.60,214.09 L140.96,214.07 L141.68,214.05 L142.27,214.04 L143.66,214.02 L145.57,213.98 L149.24,213.94 L149.59,213.91 L149.84,213.87 L150.63,213.83 L150.83,213.82 L151.30,213.79 L152.35,213.78 L152.67,213.78 L153.18,213.78 L154.44,213.79 L154.77,213.80 L155.11,213.83 L155.44,213.86 L155.59,213.89 L156.24,213.94 L156.58,213.99 L156.83,214.01 L157.88,214.06 L159.16,214.10 L159.87,214.12 L160.22,214.16 L160.71,214.20 L160.87,214.22 L162.12,214.26 L162.63,214.31 L162.96,214.33 L163.47,214.37 L164.28,214.42 L164.98,214.45 L165.28,214.50 L166.38,214.54 L166.52,214.56 L166.83,214.60 L168.46,214.64 L168.55,214.65 L169.48,214.67 L170.34,214.69 L171.44,214.69 L172.75,214.70 L173.89,214.70 L174.01,214.70 L174.82,214.69 L176.26,214.68 L176.67,214.67 L177.40,214.67 L177.89,214.68 L177.94,214.69 L178.28,214.71 L179.40,214.74 L179.47,214.75 L180.30,214.78 L181.02,214.82 L181.55,214.84 L182.23,214.87 L182.82,214.91 L182.95,214.92 L183.91,214.95 L184.37,214.98 L184.81,214.99 L185.08,215.00 L186.64,215.00 L186.72,215.00 L186.85,214.99 L186.98,214.98 L187.53,214.97 L188.12,214.96 L188.54,214.95 L188.82,214.94 L189.00,214.94 L189.53,214.96 L190.41,214.99 L190.73,215.01 L191.26,215.04 L191.52,215.08 L191.77,215.10 L193.05,215.15 L194.87,215.19 L195.12,215.22 L195.56,215.27 L197.19,215.31 L197.26,215.33 L197.90,215.36 L198.19,215.37 L199.76,215.38 L200.38,215.39 L200.66,215.38 L200.94,215.38 L201.65,215.36 L202.40,215.34 L203.03,215.33 L204.02,215.29 L205.91,215.24 L206.05,215.21 L206.63,215.14 L207.09,215.07 L207.51,215.03 L208.21,214.94 L208.52,214.84 L209.54,214.79 L210.16,214.68 L212.95,214.56 L213.24,214.50 L214.77,214.38 L215.62,214.27 L217.05,214.22 L217.60,214.17 L218.26,214.12 L219.01,214.10 L219.62,214.05 L220.56,214.01 L220.89,213.99 L223.50,213.97 L223.94,213.97 L224.14,213.98 L225.75,214.01 L227.06,214.04 L227.23,214.04 L227.52,214.03 L228.76,213.99 L228.86,213.97 L229.21,213.89 L229.66,213.78 L230.30,213.71 L230.65,213.55 L230.96,213.35 L231.01,213.21 L231.51,212.92 L232.28,212.59 L232.51,212.27 L232.60,212.13 L233.32,211.87 L233.73,211.67 L234.07,211.59 L235.97,211.56 L236.56,211.61 L237.51,211.65 L237.96,211.77 L238.92,211.97 L239.31,212.09 L240.25,212.36 L240.65,212.60 L240.86,212.71 L241.46,212.84 L241.66,212.88 L242.26,212.88 L242.47,212.78 L243.64,212.63 L243.71,212.55 L244.69,212.38 L244.91,212.22 L244.94,212.15 L245.47,212.04 L245.61,211.99 L246.17,212.00 L247.00,212.02 L247.45,212.15 L247.65,212.21 L248.27,212.34 L248.49,212.47 L248.83,212.52 L249.56,212.56 L250.55,212.54 L251.13,212.51 L251.71,212.39 L252.07,212.17 L252.31,212.05 L252.87,211.83 L253.26,211.64 L253.42,211.56 L254.42,211.44 L254.83,211.41 L255.08,211.41 L256.16,211.49 L256.92,211.69 L257.26,211.81 L257.87,212.07 L258.71,212.39 L258.87,212.56 L259.54,212.89 L261.96,213.16 L262.13,213.27 L262.39,213.42 L263.21,213.48 L263.41,213.48 L264.23,213.41 L265.08,213.24 L265.15,213.13 L266.18,212.89 L266.65,212.65 L266.71,212.53 L267.45,212.32 L268.70,212.15 L269.72,212.03 L270.12,211.99 L270.72,211.97 L271.87,212.01 L273.23,212.07 L273.48,212.21 L274.01,212.38 L274.33,212.47 L274.91,212.65 L275.53,212.83 L276.51,212.91 L276.99,213.01 L278.26,213.08 L278.33,213.09 L278.99,213.09 L279.40,213.03 L279.52,212.99 L280.07,212.87 L281.24,212.73 L281.35,212.66 L282.01,212.49 L282.40,212.27 L282.55,212.14 L283.26,211.85 L283.37,211.49 L283.39,211.31 L283.96,210.93 L284.57,210.54 L285.13,210.33 L285.54,209.82 L286.07,209.22 L286.18,208.89 L286.45,208.11 L286.75,207.31 L287.05,206.91 L287.78,206.08 L288.47,205.25 L288.68,204.81 L289.70,203.91 L290.14,202.99 L290.27,202.41 L291.07,201.24 L291.85,200.14 L292.58,199.61 L293.05,198.57 L293.63,197.53 L295.31,197.01 L295.97,196.00 L296.27,194.98 L296.43,194.47 L297.21,193.49 L297.81,192.48 L298.06,191.99 L298.51,191.20 L299.49,190.39 L300.14,189.96 L300.96,189.12 L301.48,188.29 L301.66,187.89 L302.60,187.03 L303.74,186.10 L304.00,185.64 L304.36,184.73 L305.36,183.68 L305.83,182.53 L306.83,181.98 L307.44,180.87 L308.19,179.80 L308.54,179.28 L311.03,178.28 L311.83,177.37 L311.94,176.93 L314.09,176.21 L315.53,175.55 L316.12,175.26 L316.64,174.70 L317.17,174.39 L317.51,174.24 L318.55,173.82 L319.55,173.41 L319.74,173.21 L321.65,172.78 L322.32,172.32 L322.67,172.09 L325.20,171.57 L326.32,171.06 L326.42,170.81 L326.97,170.31 L327.55,169.84 L327.70,169.60 L328.81,169.10 L330.09,168.67 L330.41,168.37 L331.03,167.78 L331.71,167.21 L332.00,166.93 L333.16,166.39 L333.71,165.87 L335.50,165.59 L336.14,165.00 L336.50,164.38 L336.67,164.06 L337.11,163.44 L337.55,162.73 L338.70,162.37 L339.11,161.84 L339.47,161.23 L339.77,160.89 L340.48,160.13 L341.90,159.26 L342.22,158.81 L342.62,157.87 L344.32,156.82 L344.77,156.27 L346.24,155.15 L346.76,154.06 L346.89,153.56 L347.60,152.55 L348.94,151.55 L349.33,151.11 L349.79,150.27 L351.37,149.61 L351.67,149.30 L352.82,148.72 L353.47,148.25 L353.68,148.06 L354.82,147.72 L355.27,147.36 L355.45,147.20 L357.03,146.64 L357.50,146.09 L358.14,145.40 L358.40,145.03 L359.38,144.26 L362.31,143.39 L362.60,142.94 L363.03,141.99 L364.11,141.03 L364.24,140.50 L364.78,139.45 L365.69,138.37 L366.19,137.92 L367.10,137.03 L367.88,136.19 L368.84,135.78 L369.41,134.82 L371.23,133.83 L371.76,133.32 L372.36,132.29 L373.35,131.24 L373.84,130.69 L375.71,129.66 L376.40,128.63 L377.03,128.17 L377.89,127.27 L378.48,126.38 L379.27,125.95 L379.96,125.20 L380.45,124.54 L380.68,124.23 L381.13,123.67 L381.69,123.05 L381.92,122.71 L382.36,122.02 L383.20,121.31 L383.55,120.96 L383.91,120.28 L385.83,119.61 L385.90,119.29 L387.32,118.64 L389.39,117.98 L389.78,117.65 L390.25,116.98 L390.81,116.21 L390.99,115.88 L391.75,115.27 L392.78,114.80 L393.08,114.60 L393.86,114.25 L395.30,113.87 L396.01,113.68 L396.58,113.48 L398.34,113.30 L398.54,113.17 L399.35,112.85 L404.22,112.13 L405.27,111.75 L408.55,110.81 L410.47,109.52 L411.88,108.82 L412.99,107.36 L418.71,105.57 L419.51,104.69 L426.16,102.78 L428.07,100.36 L428.63,97.89 L428.95,96.67 L433.11,94.22 L433.63,92.16 L434.30,91.18 L438.32,89.62 L439.48,88.16 L440.15,87.45 L445.00,86.18 L445.62,85.04 L445.91,84.49 L446.54,83.62 L448.45,83.08 L448.78,82.87 L449.36,82.68 L451.88,82.85 L452.13,82.98 L452.63,83.27 L453.13,83.65 L453.30,83.86 L453.82,84.29 L455.63,84.75 L456.04,84.99 L457.01,85.51 L458.06,86.07 L458.57,86.36 L459.08,86.96 L461.17,87.61 L461.48,87.90 L462.62,88.50 L463.23,89.42 L463.62,89.88 L464.80,90.69 L466.72,91.42 L467.12,91.78 L468.31,92.53 L472.44,93.45 L472.84,94.00 L481.66,95.12 L489.25,96.17 L489.44,96.67 L490.12,97.99 L494.86,99.17 L495.16,99.71 L495.72,100.85 L496.42,102.24 L496.71,102.96 L500.76,104.84 L502.42,106.73 L502.79,107.49 L503.37,109.05 L503.89,110.56 L504.05,111.29 L509.34,112.55 L509.81,113.60 L510.04,114.13 L512.48,115.18 L513.14,116.23 L514.20,116.76 L514.85,118.00 L517.47,119.07 L520.09,119.62 L520.93,120.69 L521.53,121.77 L525.48,122.86 L526.15,123.41 L527.18,124.73 L527.82,126.37 L528.68,127.18 L529.59,128.78 L529.98,130.40 L530.19,131.03 L533.19,132.26 L535.39,133.81 L535.73,134.65 L536.12,136.33 L536.74,138.05 L537.03,138.92 L537.82,140.66 L541.16,142.04 L541.41,142.71 L542.01,144.07 L542.51,145.60 L542.72,146.39 L543.28,148.09 L544.92,149.74 L545.17,150.40 L545.96,151.79 L547.95,153.28 L548.39,154.14 L550.50,155.88 L551.89,157.64 L551.99,158.45 L553.33,160.14 L555.12,161.78 L556.27,162.57 L556.88,164.17 L557.59,165.84 L558.03,166.70 L559.87,168.47 L561.17,170.34 L561.99,171.19 L563.64,172.76 L565.69,174.44 L566.16,175.30 L566.95,177.05 L569.18,178.98 L569.74,180.04 L570.69,182.07 L572.96,183.99 L573.20,184.92 L574.53,186.71 L577.35,188.54 L578.03,189.48 L578.75,191.31 L579.49,193.10 L580.68,193.92 L581.29,195.65 L584.30,197.27 L584.56,197.92 L584.98,199.17 L585.57,200.41 L585.91,201.04 L587.87,202.22 L588.93,203.43 L589.25,203.89 L589.75,204.82 L590.29,205.76 L590.93,206.76 L591.33,207.28 L591.79,208.27 L592.33,209.30 L592.53,209.86 L592.91,210.95 L594.31,212.06 L594.91,212.63 L595.34,213.77 L596.48,215.16 L596.94,216.08 L597.45,217.98 L598.55,219.96 L598.97,220.91 L599.82,222.80 L602.99,224.67 L606.48,225.56 L607.49,227.38 L608.01,229.28 L608.55,230.17 L609.33,232.00 L609.75,233.69 L609.98,234.43 L611.43,235.46 L612.93,236.36 L613.00,236.79 L614.28,237.55 L614.90,238.32 L615.08,238.73 L615.61,239.64 L616.25,240.50 L616.57,240.92 L617.51,241.82 L619.18,242.67 L619.84,243.09 L621.11,244.14 L621.67,245.41 L622.31,246.06 L624.09,247.59 L624.53,249.22 L624.75,250.12 L626.89,252.04 L627.42,253.92 L627.61,254.86 L629.41,256.71 L630.59,258.54 L631.55,259.52 L633.19,261.47 L634.11,263.07 L634.31,263.86 L634.65,265.28 L635.66,266.53 L636.46,267.05 L636.90,267.87 L637.65,268.62 L638.43,268.94 L638.61,269.65 L640.07,270.45 L640.79,270.80 L642.45,271.43 L642.96,272.16 L643.06,272.57 L644.78,273.48 L645.22,274.56 L645.55,275.81 L645.78,276.47 L647.44,277.70 L647.87,279.01 L648.85,279.73 L649.74,281.00 L650.25,282.31 L650.51,282.98 L650.80,284.55 L651.58,286.15 L651.89,287.07 L652.26,288.93 L652.59,290.96 L652.82,292.09 L654.05,294.36 L655.44,296.73 L656.47,297.89 L657.85,300.34 L659.78,302.89 L660.75,304.18 L661.33,306.82 L662.22,309.69 L662.63,311.11 L664.41,314.12 L665.37,316.93 L665.64,318.23 L669.58,320.70 L674.38,323.12 L676.09,324.32 L681.25,326.65 L682.55,328.82 L682.95,329.88 L683.58,331.91 L684.18,333.47 L684.68,334.16 L685.58,335.18 L686.51,335.92 L687.02,336.20 L687.33,336.62 L687.85,336.87 L688.89,336.92 L691.26,336.92 L692.03,336.80 L692.76,336.71 L693.92,336.48 L694.55,336.24 L695.27,336.16 L695.99,336.03 L696.64,335.96 L696.72,335.95 L696.90,336.06 L697.01,336.28 L698.68,336.47 L699.85,337.01 L700.57,337.70 L700.81,338.07 L701.40,338.85 L702.07,339.65 L703.27,340.06 L704.54,340.76 L705.84,341.38 L705.98,341.66 L706.52,342.20 L706.67,342.77 L706.93,343.32 L707.08,343.57 L707.29,344.00 L707.46,344.43 L707.69,344.67 L709.32,345.20 L710.66,345.87 L710.91,346.24 L711.73,347.24 L713.83,348.55 L714.44,349.26 L715.81,350.73 L717.02,352.23 L717.40,352.97 L721.10,354.57 L722.45,356.15 L722.94,356.91 L724.32,358.43 L724.70,359.86 L725.08,360.55 L726.71,361.88 L727.14,362.76 L727.49,363.18 L728.13,363.99 L728.86,364.82 L729.10,365.24 L729.42,366.01 L729.81,366.73 L730.42,367.10 L731.45,367.81 L732.49,368.72 L732.65,369.17 L732.97,370.05 L733.36,370.95 L733.57,371.41 L733.96,372.43 L736.37,373.36 L736.66,373.79 L736.94,374.69 L737.43,375.59 L737.60,376.06 L739.24,377.01 L740.02,377.85 L740.11,378.22 L740.71,378.95 L741.30,379.68 L741.91,380.05 L742.46,380.73 L742.83,381.35 L743.24,381.65 L743.67,382.27 L744.07,382.93 L744.37,383.24 L745.27,383.83 L746.02,384.44 L746.21,384.78 L746.83,385.48 L747.55,386.26 L747.59,386.65 L748.07,387.42 L749.10,388.20 L749.73,388.59 L750.48,389.36 L751.83,390.06 L752.21,390.39 L752.79,391.06 L754.26,391.71 L755.66,392.28 L756.21,392.53 L756.30,393.02 L756.70,393.67 L757.15,394.12 L757.60,395.03 L758.12,395.88 L758.19,396.31 L758.67,397.18 L760.60,398.15 L762.24,398.72 L763.10,399.90 L763.54,401.14 L763.95,401.75 L765.21,402.99 L765.94,404.11 L766.82,404.56 L767.44,405.28 L767.90,406.02 L767.96,406.41 L768.20,407.17 L768.31,407.86 L768.51,408.17 L768.92,408.62 L770.06,408.98 L770.61,409.12 L770.69,409.39 L771.41,409.58 L771.83,409.67 L772.19,409.80 L772.99,409.86 L773.36,409.84 L774.03,409.76 L775.32,409.65 L775.43,409.58 L775.99,409.43 L776.54,409.29 L777.07,409.21 L777.64,409.07 L778.97,408.96 L781.27,408.92 L782.68,408.86 L783.20,408.81 L783.40,408.80 L783.56,408.82 L784.34,408.92 L784.78,409.03 L785.63,409.27 L785.82,409.52 L786.03,409.66 L787.54,410.17 L789.25,410.81 L791.61,411.16 L792.31,411.93 L792.86,412.78 L793.33,413.21 L800.31,414.06 L802.47,414.87 L802.75,415.27 L804.14,416.15 L805.42,417.08 L805.86,417.55 L806.39,418.36 L807.29,419.01 L810.81,419.59 L813.35,419.86 L814.23,420.31 L814.41,420.74 L816.10,420.95 L816.62,421.40 L817.80,421.89 L818.05,422.07 L818.30,422.39 L818.64,422.72 L818.83,422.90 L820.06,423.23 L821.28,423.54 L821.42,423.69 L824.07,423.98 L824.53,424.26 L827.06,424.40 L828.24,424.67 L828.88,424.89 L828.98,424.98 L829.30,425.12 L829.93,425.22 L830.09,425.27 L830.92,425.40 L831.38,425.57 L831.70,425.66 L832.17,425.84 L832.97,426.06 L833.11,426.19 L836.73,426.45 L838.95,426.70 L839.58,426.85 L840.64,427.22 L844.42,427.61 L844.52,427.80 L845.01,428.17 L845.37,428.46 L847.09,428.60 L853.94,428.89 L854.90,429.18 L855.06,429.29 L855.52,429.51 L855.87,429.71 L856.07,429.81 L858.12,429.93 L858.92,429.98 L858.98,430.00 L859.76,430.03 L861.17,430.08 L861.19,430.12 L862.00,430.20 L862.77,430.32 L863.39,430.39 L864.17,430.59 L864.96,430.75 L865.43,430.82 L866.14,430.91 L867.21,430.86 L867.52,430.80 L869.39,430.63 L870.45,430.31 L870.52,430.13 L871.60,429.69 L873.00,429.13 L874.05,428.42 L874.65,428.01 L876.27,427.19 L876.87,426.38 L877.25,426.01 L878.49,425.40 L879.39,424.98 L880.13,424.83 L881.35,424.64 L883.64,424.56 L884.30,424.54 L884.67,424.53 L886.18,424.58 L886.42,424.61 L887.32,424.69 L888.40,424.83 L888.76,424.91 L890.18,425.16 L891.29,425.48 L891.54,425.63 L892.94,425.95 L895.00,426.26 L895.38,426.43 L897.45,426.78 L898.33,427.19 L898.86,427.40 L899.58,427.78 L899.88,428.08 L900.77,428.18 L901.24,428.30 L901.73,428.23 L903.01,428.15 L904.21,427.87 L906.19,427.38 L906.48,427.11 L906.85,426.23 L907.53,425.15 L907.86,424.59 L908.72,423.35 L910.17,421.94 L910.38,421.24 L912.34,419.82 L913.14,418.39 L913.24,417.66 L914.38,416.19 L915.24,414.76 L915.69,414.01 L915.91,412.62 L916.27,411.39 L916.61,410.80 L916.97,409.47 L917.44,408.31 L917.95,407.74 L918.21,406.57 L918.55,405.27 L918.68,404.58 L919.46,403.23 L919.84,401.90 L920.06,401.24 L920.94,400.09 L921.85,398.98 L922.37,398.46 L923.07,397.50 L923.43,396.65 L924.45,395.80 L924.69,395.40 L925.45,394.72 L926.02,394.18 L926.14,393.92 L927.11,393.43 L928.07,392.95 L928.31,392.70 L928.72,392.19 L929.48,391.58 L929.57,391.25 L929.91,390.56 L930.37,389.90 L930.64,389.54 L930.87,388.82 L932.22,388.08 L932.33,387.71 L932.79,386.95 L933.17,386.18 L934.15,385.79 L935.00,384.99 L935.26,384.19 L936.04,383.86 L936.56,383.25 L936.92,382.75 L937.52,382.54 L939.06,382.32 L939.61,382.30 L940.04,382.30 L940.44,382.41 L940.86,382.61 L941.26,382.76 L942.65,383.16 L943.57,383.70 L943.81,383.99 L944.61,384.60 L945.32,385.23 L946.50,385.55 L948.10,386.20 L948.80,386.72 L949.33,386.97 L949.99,387.43 L951.43,387.83 L951.55,388.01 L953.73,388.31 L954.00,388.57 L954.40,388.68 L954.83,388.90 L955.55,389.16 L956.00,389.27 L957.32,389.47 L959.02,389.65 L959.12,389.75 L960.13,389.95 L962.73,390.18 L962.96,390.31 L963.54,390.62 L964.54,390.96 L964.94,391.14 L965.68,391.52 L966.43,391.94 L966.75,392.15 L967.97,392.63 L968.41,393.16 L968.96,393.69 L969.94,393.97 L971.47,394.52 L972.42,395.06 L973.60,395.32 L974.15,395.79 L974.90,396.22 L975.19,396.42 L976.31,396.75 L978.15,397.02 L978.29,397.12 L979.38,397.26 L979.99,397.35 L980.20,397.37 L980.56,397.39 L981.09,397.33 L981.39,397.27 L982.28,397.11 L982.78,396.80 L983.08,396.60 L984.20,396.17 L986.10,395.72 L986.20,395.45 L988.20,394.90 L989.81,394.33 L990.70,394.00 L991.22,393.33 L991.32,392.67 L992.35,392.34 L993.11,391.67 L993.44,391.05 L995.96,390.76 L996.30,390.25 L996.73,389.75 L997.04,389.49 L997.55,389.03 L998.74,388.56 L999.35,388.30 L999.67,387.87 L1000.69,387.35 L1000.84,387.09 L1002.49,386.51 L1002.83,385.93 L1004.15,385.65 L1005.26,385.13 L1006.93,384.59 L1007.30,384.34 L1008.76,383.68 L1009.29,383.05 L1009.39,382.72 L1009.73,382.13 L1010.14,381.62 L1010.39,381.38 L1013.63,380.93 L1015.75,380.54 L1015.92,380.36 L1016.17,379.98 L1017.04,379.54 L1017.83,379.33 L1018.38,378.94 L1018.87,378.61 L1018.92,378.45 L1020.61,378.10 L1022.03,377.69 L1022.54,377.26 L1022.92,377.04 L1023.60,376.59 L1023.94,376.11 L1024.34,375.87 L1024.95,375.45 L1025.59,375.06 L1025.90,374.87 L1026.10,374.53 L1027.51,374.23 L1027.67,374.08 L1028.22,373.81 L1028.68,373.57 L1028.76,373.46 L1029.53,373.27 L1029.99,373.10 L1030.33,373.03 L1031.35,372.89 L1032.12,372.76 L1032.44,372.69 L1032.62,372.54 L1033.02,372.40 L1033.15,372.32 L1033.54,372.18 L1033.83,372.06 L1034.10,371.99 L1034.35,371.85 L1034.66,371.71 L1035.01,371.64 L1035.25,371.50 L1035.72,371.38 L1035.92,371.33 L1036.49,371.25 L1037.04,371.19 L1037.44,371.18 L1037.81,371.18 L1038.10,371.20 L1038.31,371.22 L1038.60,371.27 L1039.06,371.33 L1039.48,371.35 L1039.65,371.40 L1040.56,371.45 L1040.76,371.46 L1041.81,371.46 L1042.45,371.43 L1042.54,371.40 L1043.08,371.32 L1043.63,371.22 L1044.19,371.17 L1044.86,371.06 L1045.49,370.97 L1045.60,370.93 L1045.75,370.85 L1046.16,370.78 L1046.38,370.74 L1047.13,370.66 L1047.34,370.54 L1047.89,370.47 L1048.17,370.22 L1048.91,369.91 L1049.94,369.73 L1050.61,369.31 L1051.49,368.89 L1051.80,368.68 L1053.33,368.27 L1053.86,367.86 L1055.53,367.46 L1056.00,367.27 L1056.47,366.92 L1056.80,366.62 L1056.89,366.53 L1057.75,366.40 L1057.97,366.28 L1058.35,366.22 L1058.67,366.04 L1058.81,365.80 L1058.84,365.65 L1058.98,365.31 L1059.53,364.92 L1059.87,364.72 L1060.61,364.30 L1061.02,363.83 L1061.25,363.58 L1061.88,363.07 L1061.99,362.54 L1062.33,362.29 L1062.40,361.79 L1063.30,361.30 L1063.33,361.05 L1063.79,360.55 L1064.13,360.08 L1064.47,359.83 L1065.57,359.35 L1066.10,358.85 L1066.67,358.60 L1067.28,358.10 L1067.75,357.59 L1068.06,357.29 L1068.62,356.66 L1069.41,355.94 L1070.33,355.57 L1070.90,354.83 L1071.96,354.05 L1073.58,353.57 L1074.51,352.53 L1076.63,351.36 L1076.84,350.74 L1077.67,349.36 L1078.47,347.91 L1080.01,347.14 L1081.16,345.56 L1082.83,343.89 L1083.29,343.06 L1085.36,341.41 L1085.65,339.78 L1086.47,338.98 L1087.59,337.57 L1089.14,336.26 L1089.28,335.67 L1089.40,334.58 L1090.00,333.64 L1090.32,333.16 L1090.41,332.23 L1090.65,331.38 L1090.70,331.07 L1090.87,330.41 L1091.74,329.54 L1092.01,329.04 L1094.57,328.01 L1094.71,326.85 L1094.97,325.47 L1095.96,324.63 L1098.32,322.96 L1099.07,321.33 L1099.46,320.55 L1101.02,319.13 L1102.50,317.66 L1104.04,316.84 L1104.21,315.30 L1104.45,314.00 L1104.52,313.36 L1104.73,312.00 L1105.26,310.69 L1106.24,310.10 L1106.50,309.04 L1107.03,307.85 L1107.22,307.21 L1108.15,305.87 L1109.17,304.48 L1109.52,303.79 L1110.52,302.53 L1111.17,301.25 L1111.92,300.62 L1112.42,299.41 L1113.13,298.29 L1113.24,297.76 L1113.61,296.73 L1114.16,295.75 L1114.37,295.28 L1114.69,294.45 L1115.38,293.65 L1115.47,293.29 L1115.95,292.54 L1116.79,291.78 L1116.91,291.39 L1117.17,290.62 L1117.51,289.85 L1117.65,289.50 L1118.21,288.73 L1118.86,287.92 L1119.21,287.51 L1119.59,286.67 L1119.91,285.80 L1120.10,285.28 L1121.18,284.23 L1122.00,283.17 L1122.24,282.67 L1122.58,281.63 L1123.17,280.56 L1124.11,280.03 L1124.59,278.94 L1125.00,278.02 L1125.17,277.60 L1126.05,276.79 L1126.47,275.99 L1126.62,275.63 L1127.09,275.03 L1127.09,274.40 L1127.19,274.05 L1127.46,273.38 L1127.76,272.77 L1127.87,272.49 L1128.43,271.93 L1129.88,271.29 L1130.14,270.56 L1130.35,270.18 L1130.74,269.40 L1130.83,268.62 L1131.04,268.21 L1131.80,267.40 L1132.36,266.69 L1132.51,266.32 L1132.86,265.58 L1133.12,264.82 L1133.40,264.43 L1134.08,263.57 L1134.43,262.65 L1134.62,262.17 L1135.01,261.19 L1135.29,260.24 L1135.50,259.77 L1136.69,258.86 L1137.53,257.97 L1138.18,257.53 L1138.70,256.67 L1138.89,255.81 L1138.99,255.39 L1139.31,254.55 L1139.98,253.78 L1140.08,253.40 L1140.41,252.70 L1140.75,251.97 L1140.92,251.60 L1141.58,250.86 L1142.28,250.06 L1142.82,249.66 L1143.28,248.84 L1143.66,248.01 L1143.76,247.59 L1144.04,246.79 L1145.03,246.04 L1145.23,245.66 L1145.67,244.97 L1146.05,244.32 L1146.17,243.97 L1146.38,243.26 L1146.97,242.47 L1147.33,242.12 L1147.63,241.36 L1147.85,240.59 L1148.29,240.20 L1148.58,239.39 L1149.29,238.57 L1149.45,238.19 L1150.39,237.37 L1150.70,236.54 L1150.92,236.13 L1151.43,235.33 L1151.69,234.58 L1151.81,234.22 L1152.70,233.27 L1153.04,232.05 L1153.19,231.40 L1153.62,230.08 L1153.85,228.75 L1153.94,228.05 L1155.87,226.68 L1156.50,225.32 L1156.91,223.92 L1157.25,223.24 L1157.49,221.82 L1157.92,220.40 L1158.04,219.64 L1158.57,218.55 L1158.79,217.50 L1158.91,216.96 L1159.28,215.70 L1159.62,214.42 L1160.09,213.77 L1160.67,212.28 L1161.30,210.60 L1161.44,209.66 L1162.68,207.75 L1162.95,205.79 L1163.20,204.81 L1164.60,202.93 L1165.99,200.67 L1166.39,199.36 L1166.88,196.74 L1167.21,194.25 L1167.40,192.97 L1167.92,190.50 L1170.01,188.21 L1171.04,187.15 L1171.69,185.02 L1172.00,182.85 L1172.31,181.78 L1172.68,179.43 L1173.01,177.21 L1173.46,176.27 L1174.35,174.66 L1174.55,173.02 L1174.67,172.15 L1175.75,170.39 L1176.12,168.57 L1176.61,167.63 L1177.18,165.78 L1178.04,164.08 L1178.46,163.21 L1178.98,161.55 L1179.79,159.81 L1179.89,158.91 L1180.42,157.13 L1180.56,155.08 L1180.82,154.06 L1181.15,152.04 L1182.34,150.04 L1182.45,149.09 L1183.39,147.21 L1184.97,145.38 L1185.30,144.39 L1185.85,142.41 L1186.44,140.42 L1186.56,139.51 L1186.80,137.63 L1187.35,135.90 L1187.80,135.11 L1188.30,133.57 L1188.87,131.99 L1189.22,131.24 L1189.96,129.63 L1190.60,127.91 L1191.14,126.17 L1191.51,125.30 L1192.07,123.53 L1192.71,121.82 L1193.38,121.00 L1194.66,119.45 L1195.88,118.01 L1196.10,117.32 L1197.31,116.00 L1197.95,114.71 L1198.06,114.08 L1198.56,112.87 L1198.96,111.75 L1199.30,111.25 L1200.21,110.27 L1200.99,109.36 L1201.26,108.85 L1202.24,107.77 L1202.84,106.55 L1202.99,105.89 L1203.57,104.52 L1203.91,103.14 L1204.67,102.46 L1205.43,101.13 L1206.52,99.92 L1207.11,99.35 L1208.15,98.27 L1209.16,97.32 L1209.42,96.88 L1210.35,96.20 L1211.60,95.72 L1212.08,95.56 L1212.76,95.37 L1213.42,95.32 L1213.62,95.32 L1213.95,95.38 L1214.44,95.48 L1214.46,95.54 L1214.98,95.65 L1215.62,95.68 L1216.04,95.65 L1216.65,95.50 L1217.02,95.24 L1217.38,95.07 L1218.28,94.69 L1220.32,94.23 L1220.59,93.97 L1221.73,93.41 L1222.49,92.76 L1222.76,92.42 L1223.30,91.70 L1224.17,90.95 L1224.34,90.61 L1225.13,89.89 L1226.12,89.16 L1226.32,88.80 L1226.88,88.08 L1227.43,87.35 L1227.77,87.00 L1229.53,86.27 L1230.77,85.52 L1231.07,85.14 L1231.56,84.37 L1232.08,83.56 L1232.52,82.62 L1233.21,82.16 L1233.92,81.34 L1234.75,80.59 L1235.06,80.19 L1236.25,79.41 L1238.92,78.52 L1239.14,78.06 L1240.33,77.15 L1241.20,76.23 L1243.41,75.76 L1243.99,74.62 L1245.54,73.56 L1245.77,73.04 L1246.68,72.01 L1247.49,70.88 L1247.94,70.27 L1250.41,69.09 L1251.14,67.83 L1251.76,67.22 L1251.93,66.02 L1254.04,64.75 L1254.39,64.14 L1254.87,63.05 L1256.41,62.10 L1256.69,61.63 L1257.39,60.68 L1259.51,59.71 L1260.51,59.30 L1261.21,58.49 L1263.57,57.78 L1264.14,57.48 L1265.36,56.78 L1266.02,56.11 L1266.23,55.80 L1267.16,55.13 L1267.48,54.40 L1268.15,54.04 L1270.40,53.36 L1271.02,52.74 L1271.22,52.47 L1273.34,52.04 L1275.20,51.75 L1275.95,51.64 L1276.39,51.41 L1276.99,51.26 L1278.16,51.17 L1279.73,50.94 L1281.74,50.70 L1282.34,50.57 L1283.69,50.29 L1284.33,50.02 L1284.66,49.90 L1285.78,49.72 L1286.52,49.51 L1286.77,49.38 L1287.13,49.16 L1287.37,49.09 L1288.28,49.28 L1289.86,49.76 L1290.24,50.43 L1290.51,50.82 L1290.85,51.75 L1291.33,52.82 L1294.59,53.36 L1294.94,54.34 L1295.35,55.04 L1295.75,55.56 L1298.10,55.79 L1298.45,56.33 L1300.43,56.73 L1300.92,56.87 L1303.19,57.10 L1304.28,57.26 L1305.33,57.31 L1307.91,57.20 L1309.19,57.09 L1311.11,57.07 L1312.72,57.09 L1313.91,57.33 L1315.14,57.47 L1315.74,57.79 L1317.91,58.08 L1318.79,58.26 L1319.28,58.64 L1319.62,59.10 L1319.87,59.42 L1321.06,60.33 L1322.61,61.53 L1323.11,62.11 L1324.46,63.27 L1325.85,64.46 L1328.02,65.07 L1332.29,66.29 L1339.06,67.49 L1339.15,68.01 L1339.70,69.00 L1343.18,69.93 L1343.54,70.38 L1345.43,71.06 L1345.83,71.42 L1346.12,71.54 L1347.09,71.79 L1347.49,72.04 L1348.46,72.15 L1348.72,72.34 L1349.39,72.51 L1349.56,72.62 L1349.78,72.93 L1350.27,73.28 L1350.43,73.47 L1350.75,73.87 L1351.13,74.30 L1351.61,74.51 L1352.98,74.93 L1353.58,75.34 L1353.86,75.54 L1355.36,75.92 L1355.64,76.30 L1355.79,76.47 L1356.15,76.76 L1356.94,76.98 L1357.21,77.08 L1357.90,77.32 L1358.18,77.55 L1358.29,77.68 L1358.84,78.01 L1359.18,78.36 L1359.40,78.59 L1360.50,79.11 L1361.12,79.70 L1361.58,80.31 L1361.79,80.61 L1362.04,81.20 L1362.91,81.83 L1363.51,82.21 L1364.13,82.98 L1364.56,83.77 L1364.73,84.17 L1365.01,85.10 L1366.82,86.07 L1368.73,86.61 L1369.20,87.63 L1369.90,88.65 L1370.20,89.16 L1371.76,90.20 L1372.58,91.30 L1373.60,91.83 L1373.93,92.72 L1374.47,93.62 L1374.58,94.04 L1374.80,94.90 L1375.56,95.77 L1375.65,96.23 L1376.40,97.07 L1376.86,97.88 L1377.15,98.27 L1378.31,99.04 L1381.19,99.76 L1381.35,100.10 L1382.29,100.72 L1382.65,101.16 L1382.76,101.31 L1383.35,101.49 L1384.14,101.48 L1384.35,101.31 L1385.13,100.93 L1387.55,100.50 L1388.09,100.28 L1388.56,99.85 L1389.92,99.46 L1390.22,99.29 L1390.57,99.04 L1390.98,98.90 L1391.59,98.94 L1393.87,99.10 L1394.66,99.44 L1395.12,99.68 L1396.07,100.24 L1396.67,100.85 L1396.98,101.17 L1397.36,101.84 L1398.21,102.55 L1398.64,102.91 L1399.63,103.62 L1399.94,104.33 L1400.05,104.67 L1400.59,105.35 L1401.43,106.00 L1401.57,106.31 L1402.39,106.87 L1402.97,107.41 L1403.00,107.67 L1403.42,108.31 L1403.72,109.01 L1404.04,109.70 L1404.11,110.06 L1404.45,110.81 L1405.10,111.57 L1405.98,112.00 L1406.82,112.87 L1407.17,113.76 L1407.60,114.22 L1408.40,115.16 L1408.90,116.17 L1409.79,116.70 L1410.18,117.72 L1410.94,118.72 L1411.04,119.23 L1411.39,120.22 L1412.08,121.10 L1412.53,121.51 L1413.19,122.16 L1413.62,122.74 L1413.73,122.98 L1414.20,123.40 L1414.45,123.74 L1414.66,123.85 L1415.22,123.94 L1415.71,124.05 L1415.98,124.12 L1416.43,124.27 L1416.79,124.48 L1416.95,124.60 L1417.63,124.89 L1419.64,125.25 L1420.03,125.46 L1421.74,125.95 L1422.24,126.53 L1422.41,126.85 L1423.28,127.51 L1423.63,128.17 L1424.18,128.46 L1424.76,129.05 L1425.85,129.58 L1426.05,129.86 L1426.49,130.62 L1426.83,131.42 L1427.11,131.85 L1427.90,132.74 L1428.36,133.62 L1428.74,134.05 L1430.07,134.91 L1430.85,135.80 L1431.31,136.31 L1431.95,137.52 L1432.36,138.76 L1432.71,139.41 L1432.91,140.59 L1433.53,141.66 L1434.46,142.18 L1436.39,143.19 L1437.16,144.24 L1437.40,144.80 L1437.66,146.01 L1437.86,147.30 L1438.10,147.94 L1438.49,149.07 L1438.98,150.09 L1440.15,151.08 L1440.60,151.58 L1441.29,152.65 L1442.01,153.74 L1442.10,154.27 L1442.63,155.33 L1443.38,156.33 L1443.72,156.79 L1444.50,157.63 L1444.98,158.46 L1445.16,158.83 L1445.65,159.57 L1445.88,160.28 L1446.31,160.61 L1446.63,161.21 L1447.30,161.76 L1447.33,162.02 L1447.92,162.57 L1448.36,163.15 L1448.65,163.43 L1448.91,163.96 L1449.18,164.50 L1449.32,164.76 L1450.28,165.28 L1450.60,165.76 L1450.76,166.00 L1450.93,166.46 L1451.67,166.91 L1451.83,167.15 L1452.09,167.61 L1452.40,167.98 L1452.71,168.16 L1452.95,168.59 L1453.22,169.01 L1453.44,169.22 L1453.70,169.65 L1454.19,170.12 L1454.30,170.41 L1454.89,171.04 L1455.13,171.73 L1455.17,172.08 L1455.47,172.77 L1456.00,173.46 L1456.50,173.80 L1457.41,174.48 L1457.69,175.12 L1457.86,175.44 L1458.23,176.09 L1458.63,176.72 L1458.79,177.01 L1459.17,177.54 L1459.68,178.00 L1459.96,178.23 L1460.31,178.69 L1460.82,179.15 L1461.01,179.36 L1461.56,179.79 L1462.21,180.22 L1462.51,180.44 L1462.87,180.92 L1463.35,181.44 L1463.39,181.70 L1463.94,182.28 L1464.58,182.84 L1465.62,183.45 L1465.86,183.77 L1466.20,184.49 L1466.77,185.23 L1467.25,185.61 L1467.48,186.39 L1468.35,187.19 L1468.57,187.57 L1469.38,188.33 L1469.85,189.10 L1470.19,189.47 L1470.81,190.22 L1471.94,191.09 L1472.04,191.50 L1472.73,192.27 L1473.22,193.03 L1473.45,193.42 L1474.78,194.21 L1475.89,194.94 L1476.18,195.28 L1476.50,195.93 L1477.40,196.52 L1477.51,196.80 L1478.79,197.32 L1478.89,197.66 L1479.25,197.79 L1479.64,198.01 L1479.88,198.18 L1480.05,198.24 L1480.45,198.31 L1480.80,198.34 L1481.01,198.39 L1481.21,198.54 L1481.40,198.87 L1481.56,199.10 L1481.73,199.60 L1481.91,200.15 L1482.88,200.44 L1483.63,201.02 L1485.54,201.62 L1486.85,201.93 L1487.67,202.55 L1488.44,203.13 L1488.61,203.42 L1488.97,203.83 L1489.28,203.98 L1489.62,203.97 L1490.18,203.83 L1490.93,203.58 L1491.10,203.43 L1492.74,203.12 L1493.80,202.78 L1493.98,202.62 L1494.09,202.33 L1494.91,202.10 L1495.35,202.02 L1495.73,202.10 L1496.06,202.35 L1496.51,202.52 L1497.32,202.90 L1497.93,203.34 L1498.46,203.58 L1500.85,204.06 L1501.00,204.54 L1501.54,205.00 L1501.85,205.21 L1502.49,205.53 L1502.85,205.74 L1503.03,205.72 L1503.35,205.66 L1503.93,205.57 L1504.00,205.51 L1505.47,205.34 L1506.63,205.11 L1506.98,204.96 L1507.34,204.68 L1507.67,204.40 L1508.04,204.25 L1508.56,203.98 L1510.23,203.76 L1510.79,203.66 L1511.24,203.46 L1511.95,203.28 L1512.55,203.19 L1513.01,203.05 L1513.46,202.95 L1513.79,202.93 L1514.67,202.91 L1514.93,202.84 L1515.09,202.77 L1515.82,202.63 L1517.88,202.47 L1518.27,202.38 L1519.31,202.15 L1520.23,201.88 L1521.60,201.75 L1522.06,201.44 L1523.19,201.08 L1523.25,200.88 L1525.06,200.51 L1525.51,200.18 L1525.69,200.04 L1527.38,199.88 L1529.92,199.86 L1530.08,199.94 L1530.83,200.19 L1531.49,200.51 L1531.95,200.69 L1533.34,201.06 L1536.99,201.49 L1537.85,201.72 L1539.20,202.21 L1539.96,202.71 L1541.72,202.96 L1542.54,203.45 L1542.87,203.90 L1543.02,204.04 L1543.74,204.24 L1544.77,204.38 L1544.85,204.45 L1545.50,204.56 L1546.15,204.68 L1546.55,204.74 L1547.03,204.82 L1548.07,204.90 L1548.14,204.92 L1548.32,204.96 L1548.56,205.03 L1550.00,205.20" fill="none" stroke="#e8b21a" stroke-width="3.2" stroke-linejoin="round" stroke-linecap="round"/><circle cx="50.00" cy="215.72" r="5" fill="#ff2a0c" stroke="#ff2a0c" stroke-width="2"/><circle cx="451.88" cy="81.81" r="5" fill="#ff2a0c" stroke="#ff2a0c" stroke-width="2"/><circle cx="934.15" cy="384.98" r="5" fill="#ff2a0c" stroke="#ff2a0c" stroke-width="2"/><circle cx="1215.62" cy="95.85" r="5" fill="#ff2a0c" stroke="#ff2a0c" stroke-width="2"/><circle cx="1550.00" cy="205.20" r="5" fill="#ff2a0c" stroke="#ff2a0c" stroke-width="2"/><rect x="-220" y="173.5" width="265" height="42" fill="#cf9c20" rx="15" ry="15"></rect><text x="32.00" y="201.72" fill="#ffffff" font-family="Inter, system-ui, -apple-system, Segoe UI, Roboto, Arial, sans-serif" font-size="19" text-anchor="end">Zócalo CDMX · Salida · Km 0</text><rect x="145" y="80.5" width="295" height="42" fill="#cf9c20" rx="15" ry="15"></rect><text x="433.88" y="105.81" fill="#ffffff" font-family="Inter, system-ui, -apple-system, Segoe UI, Roboto, Arial, sans-serif" font-size="19" text-anchor="end">“La Loma” · Km 50 · 2880 msnm</text><rect x="939" y="347" width="360" height="42" fill="#cf9c20" rx="15" ry="15"></rect><text x="946.15" y="372.98" fill="#ffffff" font-family="Inter, system-ui, -apple-system, Segoe UI, Roboto, Arial, sans-serif" font-size="19" text-anchor="start">Cañón de Lobos · Km 110 · 1430 msnm</text><rect x="1220" y="92" width="195" height="42" fill="#cf9c20" rx="15" ry="15"></rect><text x="1227.62" y="117.85" fill="#ffffff" font-family="Inter, system-ui, -apple-system, Segoe UI, Roboto, Arial, sans-serif" font-size="19" text-anchor="start">Tres Marías · Km 145</text><rect x="1558" y="163" width="275" height="42" fill="#cf9c20" rx="15" ry="15"></rect><text x="1562.00" y="189.20" fill="#ffffff" font-family="Inter, system-ui, -apple-system, Segoe UI, Roboto, Arial, sans-serif" font-size="19" text-anchor="start">Okupache C.U. · Meta · Km 187</text></svg>